<svg id="Layer_1" data-name="Layer 1" xmlns="http://www.w3.org/2000/svg" viewBox="0 0 654.29 926.55"><defs><style>.cls-1{fill:#f2f2f2;}.cls-2{fill:#181818;}.cls-3{fill:#ffceb6;}.cls-4{fill:#f9bab5;}.cls-5{fill:#fff;}.cls-6{fill:#f9c0aa;}.cls-7{fill:#0152f1;}.cls-8{fill:#018cf2;}</style></defs><circle class="cls-1" cx="324.35" cy="593.66" r="287.38"/><g id="peson3"><path class="cls-2" d="M329.91,299.18c-5,1.4-7.9-2.35-12.5-2.68-8.16-.57-15.22,10.07-17.43,13.41-7.47,11.27-3.16,16.64-10.27,25-6.72,7.92-12.29,5.16-15.64,11.62-5.29,10.19,7.26,19.53,2.23,30.38-3.86,8.34-13.51,7.66-15.19,16.08-1.07,5.37,2.64,6.67,2.68,13.41.08,11.13-10,15.14-9.82,22.33.26,10.61,22.56,18.09,28.59,20.11,41.4,13.87,78.68.49,94.71-8a54.21,54.21,0,0,0,20.11-17.87c3-4.59,7.17-11,5.36-17.43-1.54-5.46-5.93-5.86-7.6-12.06-1.6-6,1.86-7.86,1.34-13.85-.7-8.14-7.4-8.37-15.63-21-6.79-10.41-4.79-14.18-11.62-20.1-4.89-4.24-7.27-3.48-10.72-8-2.91-3.84-3.87-7.92-5.81-16.09-2.09-8.83-1.38-10.2-3.57-12.95-3.06-3.84-8.73-6.55-13.41-5.36C332.83,296.79,332.89,298.36,329.91,299.18Z"/><path class="cls-3" d="M320,620.79l12.65,44a9.4,9.4,0,0,1-.23,5.86q-1.8,4.86-3.61,9.7a33.15,33.15,0,0,0-2,13.67q2.35,36.47,4.72,72.94l11.4-1.34q8.25-48.68,16.51-97.36a59.4,59.4,0,0,0,.83-9.22l.48-44Z"/><path class="cls-3" d="M285.69,631.13q11.12,75.26,22.24,150.51L320,780.3q-1.07-81.28-2.14-162.58C317,614.6,314,604.61,308,603.43,301.12,602.07,291,612.49,285.69,631.13Z"/><path class="cls-2" d="M300,500.42a34.44,34.44,0,0,0-3.58,3.38c-9.86,10.41-13.25,23.28-16.09,61.21-.94,12.6-1.45,23.08-1.78,31.27-.53,13.13-.76,24.51-.85,33.47a13.4,13.4,0,0,0,6.88,11.84,99.85,99.85,0,0,0,22.56,9.19c10.88,2.94,28.33,2.52,45.52-1.51a13.86,13.86,0,0,0,10.71-13.07c.11-3.74.23-8,.33-12.64.87-38.91.17-67.74,0-74.38-.3-11.53-.84-26.47-1.86-44a3.58,3.58,0,0,0-3.51-3.37C337.18,501.28,315.36,487.9,300,500.42Z"/><path class="cls-4" d="M263.79,263.44c-3.6-8.26-1.21-16.46-.44-18.76a34.84,34.84,0,0,1,6.25-11.17,183.66,183.66,0,0,0,4.92,18.32c1,3,1.93,6,1.34,9.83s-2.74,8.93-5.66,9.08C267,270.9,264.52,265.11,263.79,263.44Z"/><path class="cls-3" d="M378.31,267.17c-2.43-4.08-8.25-13.85-4.61-18,1.58-1.82,4.56-2.12,6.7-1.64,8.94,2,13.22,19.63,8.93,26.51a3.41,3.41,0,0,1-2.08,1.78C383.92,276.56,379.86,269.77,378.31,267.17Z"/><path class="cls-5" d="M336.17,380.05c-2.65.33-3.23,4.32-7.15,5.81-4.13,1.56-9-.8-12.95-3.58-22.18,30.93-26.93,53.15-27.26,67.46-.07,3.16,0,10.75,0,21,.08,17.72.28,32.23.45,42a169,169,0,0,0,72.82-1.34,181.27,181.27,0,0,0,2.68-62.54c-2-15.24-6.72-27.29-16.08-51.38C347.59,394.66,341.53,379.37,336.17,380.05Z"/><path class="cls-6" d="M313.38,356.37a55.88,55.88,0,0,1-2.23,32.17,63.72,63.72,0,0,0,16.53.89,64.68,64.68,0,0,0,12.51-2.23,45.18,45.18,0,0,1-4.91-32.62Z"/><path class="cls-3" d="M321,306.33c-8.14.71-12.75,8.43-13.85,10.28-3.27,5.48-3.45,11.24-3.57,15.19a67.84,67.84,0,0,0,.44,8c.56,6.48.83,9.72,1.79,12.51a21.6,21.6,0,0,0,7.15,10.72,20.77,20.77,0,0,0,14.29,4,19,19,0,0,0,11.62-4.91c4.12-3.95,4.95-8.85,5.81-13.85s.46-8.94,0-13.85c-.44-4.67-.67-7.09-1.79-10.28a27.16,27.16,0,0,0-8.49-12.51C331.71,309.53,327.09,305.8,321,306.33Z"/><path class="cls-7" d="M263.69,266.57a2.24,2.24,0,0,0-2.24,2.12A569.69,569.69,0,0,0,271.39,406a328.67,328.67,0,0,1-18.76,67.91c-1.58,4-3.21,7.84-4.86,11.59A8.93,8.93,0,0,0,255.94,498h36.32a5.8,5.8,0,0,0,5.75-5q2.89-20.49,5.55-41.47,4.53-35.91,8-70.59H297.3c-3.88-11.52-7.54-24.05-10.72-37.53A419.09,419.09,0,0,1,276,268.69a2.23,2.23,0,0,0-2.23-2.12Z"/><path class="cls-7" d="M338.4,381.83a475.5,475.5,0,0,1,11.08,71.41c.95,12.07,1.38,23.6,1.44,34.52a5.79,5.79,0,0,0,5.8,5.76h30.73a8.5,8.5,0,0,0,8.47-9.08,719.06,719.06,0,0,0-9.27-75.8q-1.68-9.54-3.57-18.76A175.49,175.49,0,0,0,395.59,347a178.07,178.07,0,0,0-4-73.26,2.23,2.23,0,0,0-2.34-1.64l-6.54.54a2.23,2.23,0,0,0-2,2.49,151.92,151.92,0,0,1-24.43,103.14Z"/><path class="cls-2" d="M319.19,774.54c-1.92-.32-2.74,2.77-6.25,3.12-3.22.32-4.52-2.07-6.26-1.34-2.33,1-.94,5.69-2.68,12.06-2.11,7.77-6.41,9-5.36,12.07,1.48,4.27,11,4.37,19.66,4.46,6.26.07,7.72-.76,8.49-1.78,1.58-2.12,0-4.72-2.24-12.51C321.66,780.36,321.68,774.94,319.19,774.54Z"/><path class="cls-2" d="M331.26,765.6c-1.91,1-.72,4.2-2.24,11.17-.95,4.38-1.76,4.66-1.34,6.25,1,3.8,5.9,3.18,11.17,7.6,5.82,4.88,3.85,9,8.94,11.61,3.31,1.72,6.65,1.28,12.95.45,4.77-.62,8.28-1.09,8.94-3.13.76-2.37-2.59-6.16-6.26-7.59-3.42-1.33-4.84.28-7.59-.89-1-.44-3.36-1.74-6.7-11.62-3.1-9.17-3.13-14.12-5.81-14.74-1.83-.43-2.66,1.67-6.26,1.78C333.71,766.6,332.72,764.84,331.26,765.6Z"/><path class="cls-8" d="M390.66,267.36l-75.49-20A7.85,7.85,0,0,0,308,249l-59.25,50.87a7.86,7.86,0,0,1-13-5.53l-4.34-78a7.87,7.87,0,0,0-3.75-6.28L161,169.48a7.86,7.86,0,0,1,1.25-14l72.81-28.22a7.85,7.85,0,0,0,4.81-5.51l18-76a7.86,7.86,0,0,1,13.74-3.16L321,103.11a7.87,7.87,0,0,0,6.73,2.87l77.83-6.33a7.86,7.86,0,0,1,7.24,12.1l-42.32,65.62a7.86,7.86,0,0,0-.65,7.29l30.07,72.07A7.86,7.86,0,0,1,390.66,267.36Z"/></g></svg>