<svg id="Layer_1" data-name="Layer 1" xmlns="http://www.w3.org/2000/svg" viewBox="0 0 654.29 926.55"><defs><style>.cls-1{fill:#f2f2f2;}.cls-2{fill:#018cf2;}.cls-3{fill:#0152f1;}.cls-4{fill:#181818;}.cls-5{fill:#ffceb6;}.cls-6{fill:#f9c0aa;}.cls-7{fill:#fff;}.cls-8{fill:#f7b58e;}</style></defs><circle class="cls-1" cx="324.35" cy="593.66" r="287.38"/><polygon class="cls-2" points="596.76 94.26 568.28 79.4 553.87 76.86 543.06 78.71 596.76 94.26"/><polyline class="cls-3" points="596.76 94.26 543.8 81.96 543.06 78.71"/><polygon class="cls-3" points="542.51 91.02 542.58 91.13 544.98 99.25 596.63 94.27 542.51 91.02"/><polygon class="cls-2" points="532.35 86.47 539.71 80.2 596.42 94.18 547.88 93.87 532.35 86.47"/><path class="cls-3" d="M416.36,193.53a39.8,39.8,0,0,0,5-2.32.77.77,0,0,1,.74,1.34A40.17,40.17,0,0,1,416.9,195c-.64.24-1.29.47-1.94.68a.78.78,0,0,1-.68-.1.75.75,0,0,1-.28-.39.76.76,0,0,1,.49-1C415.12,194,415.74,193.76,416.36,193.53Z"/><path class="cls-3" d="M516.83,81.13c2.39.25,4.89.58,7.62,1a.78.78,0,0,1,.64.88.76.76,0,0,1-.88.63c-2.71-.43-5.17-.76-7.54-1a.76.76,0,0,1,.16-1.52Z"/><path class="cls-3" d="M504.09,82a.76.76,0,0,1,.41-1.39c2.46-.08,5.05,0,7.72.12a.77.77,0,1,1-.09,1.53c-2.62-.16-5.17-.2-7.58-.12A.81.81,0,0,1,504.09,82Z"/><path class="cls-3" d="M430.9,184a.76.76,0,0,1,1.08,0,.75.75,0,0,1,0,1.08,42.57,42.57,0,0,1-5.92,5.05.77.77,0,0,1-.88,0,.66.66,0,0,1-.18-.19.76.76,0,0,1,.18-1.06A41.39,41.39,0,0,0,430.9,184Z"/><path class="cls-3" d="M434,181.65a.76.76,0,0,1-.13-1.07c.42-.54.83-1.09,1.22-1.65a37.83,37.83,0,0,0,2.83-4.66.76.76,0,0,1,1.36.7,40.41,40.41,0,0,1-2.94,4.85c-.41.57-.83,1.14-1.26,1.7a.77.77,0,0,1-1.05.15Z"/><path class="cls-3" d="M440.2,171.15l-.17-.09a.76.76,0,0,1-.27-.9,52.07,52.07,0,0,0,2.16-7.22.76.76,0,0,1,1.49.34,53.73,53.73,0,0,1-2.22,7.43A.77.77,0,0,1,440.2,171.15Z"/><path class="cls-3" d="M459,105.41c-.62.8-1.22,1.6-1.8,2.42-.87,1.24-1.7,2.52-2.47,3.81a.78.78,0,0,1-1.05.27l-.05,0a.75.75,0,0,1-.21-1c.78-1.32,1.63-2.64,2.53-3.91.59-.84,1.21-1.67,1.84-2.48a.74.74,0,0,1,1.08-.13A.76.76,0,0,1,459,105.41Z"/><path class="cls-3" d="M452.53,115.62a54.38,54.38,0,0,0-2.87,7,.76.76,0,0,1-1,.48.54.54,0,0,1-.2-.1.75.75,0,0,1-.28-.86,56.85,56.85,0,0,1,2.94-7.17.78.78,0,0,1,1-.35A.79.79,0,0,1,452.53,115.62Z"/><path class="cls-3" d="M467.3,96.69a62.62,62.62,0,0,0-5.42,5.26.75.75,0,0,1-1,.11l-.08-.06a.77.77,0,0,1-.05-1.08,64.19,64.19,0,0,1,5.55-5.39.75.75,0,0,1,1.08.08A.76.76,0,0,1,467.3,96.69Z"/><path class="cls-3" d="M481.2,87.65a.76.76,0,0,1-.77-.06.91.91,0,0,1-.25-.3.77.77,0,0,1,.37-1,60.44,60.44,0,0,1,7.2-2.84.76.76,0,0,1,.47,1.45A61.61,61.61,0,0,0,481.2,87.65Z"/><path class="cls-3" d="M444.88,147.21a.79.79,0,0,1-.37-.14.74.74,0,0,1-.32-.69l.08-1c.21-2.22.41-4.45.65-6.66a.76.76,0,0,1,1.52.16c-.24,2.21-.44,4.43-.64,6.64l-.09,1A.76.76,0,0,1,444.88,147.21Z"/><path class="cls-3" d="M470.84,93.86a.77.77,0,0,1-.89,0,1,1,0,0,1-.18-.17.77.77,0,0,1,.16-1.07,63.17,63.17,0,0,1,6.49-4.22.76.76,0,0,1,.75,1.33A62.88,62.88,0,0,0,470.84,93.86Z"/><path class="cls-3" d="M444.59,150.26a.76.76,0,0,1,.69.84c-.31,3-.62,5.41-1,7.63a.76.76,0,0,1-.88.63.71.71,0,0,1-.31-.13.77.77,0,0,1-.32-.75c.36-2.19.67-4.58,1-7.54A.76.76,0,0,1,444.59,150.26Z"/><path class="cls-3" d="M410.13,195.37a.76.76,0,0,1,.33,1.49,60.69,60.69,0,0,1-7.65,1.17.76.76,0,1,1-.14-1.52A61.7,61.7,0,0,0,410.13,195.37Z"/><path class="cls-3" d="M447.85,126a.76.76,0,0,1,.56.92c-.55,2.27-1,4.7-1.41,7.44a.76.76,0,0,1-.86.65.7.7,0,0,1-.33-.13.76.76,0,0,1-.32-.73c.4-2.8.87-5.28,1.43-7.59A.77.77,0,0,1,447.85,126Z"/><path class="cls-3" d="M497.2,81.24c.89-.12,1.78-.23,2.67-.32a.77.77,0,0,1,.84.69.76.76,0,0,1-.68.83c-.88.09-1.75.19-2.62.32-1.61.23-3.23.53-4.83.91a.76.76,0,0,1-.61-.12.76.76,0,0,1,.26-1.37C493.87,81.79,495.54,81.48,497.2,81.24Z"/><path class="cls-4" d="M276.34,778.6l45.48-.05c6,.63,12.78,2.35,13.91,7.58a30.69,30.69,0,0,1,.66,6.93c-1.61,1.89-61.9-.25-61.9-.25l-.27-.22C267.84,784.91,276.34,778.6,276.34,778.6Z"/><polygon class="cls-4" points="336.39 793.06 274.49 792.81 275.02 795.22 336.48 795.22 336.39 793.06"/><path class="cls-5" d="M273.22,763.46l3.12,15.14h0a14.75,14.75,0,0,0,12.2.29l.69-.3,2.19-15.13Z"/><path class="cls-4" d="M170.07,778.6l45.47-.05c6,.63,12.78,2.35,13.91,7.58a30,30,0,0,1,.66,6.93c-1.61,1.89-61.9-.25-61.9-.25l-.27-.22C161.56,784.91,170.07,778.6,170.07,778.6Z"/><polygon class="cls-4" points="230.11 793.06 168.21 792.81 168.74 795.22 230.2 795.22 230.11 793.06"/><path class="cls-5" d="M172,763.46l-2,15.14h0a14.73,14.73,0,0,0,12.19.29l.69-.3,7.28-15.13Z"/><path class="cls-5" d="M239.9,254.09l-37.45,24.42L214,308.1c.16.42.38.81.57,1.21.82-.05,1.64-.1,2.47-.1l.41,0,.39,0c10,0,18.64,6.17,23.87,14.47a49.69,49.69,0,0,0,17.68-4.59c3.81-1.81,7.12-4,8.32-6.3C271.73,291.8,239.9,254.09,239.9,254.09Z"/><path class="cls-5" d="M287.53,261.75s4.59,43.46-4.64,71.14c4.28,3.72,20,20.59,25-1.28s-5.56-77.52-5.56-77.52Z"/><polygon class="cls-2" points="272.41 257.58 259.4 265.95 264.04 275.67 278.01 269.51 272.41 257.58"/><path class="cls-2" d="M264.75,269.26c1.3,3,1.39,5.8.2,6.32s-3.21-1.46-4.51-4.43-1.4-5.8-.21-6.32S263.44,266.29,264.75,269.26Z"/><path class="cls-3" d="M429.46,210.22c0-.13,0-.24,0-.37a129.52,129.52,0,0,0-12.58-22.58c-9.41-13.17-12.09-19.75-12.09-19.75l-134.4,88,8.7,16.43,150.34-55.56A40.47,40.47,0,0,1,429.46,210.22Z"/><polygon class="cls-6" points="231.64 323.7 228.36 344.13 257.31 344.13 259.4 319.09 231.64 323.7"/><path class="cls-5" d="M306.4,374.4s34.2-10.89,44.92-25.53-7.42-94.78-7.42-94.78l2.34-14.42a13.43,13.43,0,0,0-13.13-15.58L324,224a5.22,5.22,0,0,0-4.82,7.35l12,27s9,60.69-3.61,65.3c-15.06,5.37-32.11,6.66-32.11,6.66Z"/><path class="cls-4" d="M242.16,323.7l-8.8-19.51,5.72-3.59A10.75,10.75,0,0,0,243.54,288l-6.26-18.39s17.81-2.18,17.28-18.78c0-8.55-11.77-8.59-11.77-8.59s-3.51,7.64-14.43,8.54c-4.68-.59-17.54,1.14-26.22,16.29-5.84,10.18-3.28,26.14,1.8,38.11,4.56,10.73,16.18,16.72,27.7,18.49Z"/><path class="cls-4" d="M207.39,487.58a644,644,0,0,0,10.81,86.68,77.52,77.52,0,0,1-2.67,39.87c-20.42,60.66-49,151.87-49,151.87H192s57.7-107.8,72.57-161.28,17.41-70.45,17.41-70.45l-17.69-46.69Z"/><path class="cls-5" d="M228.63,295.1c-1,3.08,1.07,7.15,4.73,9.09s7.48,1,8.53-2-1.07-7.15-4.73-9.09S229.68,292,228.63,295.1Z"/><path class="cls-7" d="M290.42,487.58h-83V381.06a45.18,45.18,0,0,1,41-45l57.74-7s6.79,10.39,25.71,34.54c-22.74,14.05-49.05,20.52-49.05,20.52Z"/><path class="cls-4" d="M207.39,487.58s11.73,42.44,55,90a55.65,55.65,0,0,1,16.15,43.25L269.61,766h25.83s31.48-120.53,24.69-180-29.71-98.47-29.71-98.47Z"/><path class="cls-2" d="M408.87,195.64c6.6,13.68,15.55,23,20,20.9s2.7-15-3.89-28.66-15.55-23-20-20.9S402.27,182,408.87,195.64Z"/><path class="cls-8" d="M283.94,244l.77.37a11.58,11.58,0,0,0,8.67.54l.51-.17a15.45,15.45,0,0,0,9.84-10h0a2.86,2.86,0,0,0-3.32-3.67l-5.75,1.2A8.68,8.68,0,0,0,289.2,236Z"/></svg>