<svg id="Layer_1" data-name="Layer 1" xmlns="http://www.w3.org/2000/svg" viewBox="0 0 654.29 926.55"><defs><style>.cls-1{fill:#f2f2f2;}.cls-2{fill:#ffceb6;}.cls-3{fill:#181818;}.cls-4{fill:#0152f1;}.cls-5{fill:#f9c0aa;}.cls-6{fill:#fff;}.cls-7{fill:#018cf2;}.cls-8{fill:#168a8e;}</style></defs><circle class="cls-1" cx="324.35" cy="593.66" r="287.38"/><path class="cls-2" d="M276.53,758.63h0a.87.87,0,0,1,.78.92l-2,17.57a6.24,6.24,0,0,1-2.62,2.36l-9.95,3.32c-1.62.61-1.58.83-2-.19-.27-.72,3-2.1,7.82-4.26a3.61,3.61,0,0,0,2.13-3l1-12.56A4.5,4.5,0,0,1,276.53,758.63Z"/><path class="cls-3" d="M247,786.4c4.21-.17,22.75-8.74,22.75-8.74s9.09-5.49,10.31-.81c.89,3.43.48,6.19-3.47,9l-5.73,16.82-1.9-.32,1.32-14.85c-4.12,1.77-6.1,7.93-10,9.08-4.26,1.27-23.26-6.89-24.5-8.2S241.26,786.62,247,786.4Z"/><path class="cls-2" d="M433.48,751.69h0a.85.85,0,0,1,1,.61l3.83,17.27a6.1,6.1,0,0,1-1.7,3.08L428.34,779c-1.34,1.11-1.23,1.3-1.92.46-.49-.59,2.13-3,6-6.58a3.59,3.59,0,0,0,1-3.56l-3.17-12.2A4.49,4.49,0,0,1,433.48,751.69Z"/><path class="cls-3" d="M414.63,787.59c3.92-1.54,18.65-15.7,18.65-15.7s6.8-8.16,9.47-4.13c2,3,2.48,5.69-.34,9.62l.09,17.78-1.9.32L437,781c-3.31,3-3.18,9.49-6.44,11.83-3.61,2.6-24.24,1.09-25.84.26S409.3,789.66,414.63,787.59Z"/><path class="cls-4" d="M442.74,763.4l-15.47,5.94c-19.11-112.18-94.78-238.09-96.21-343l72.12,1.95c20.32,45.22,22.2,48.2,12.5,109.1Z"/><path class="cls-3" d="M342.79,231.52l29.5,24.65c-5.61,2.73-12.18,3.35-19.71,3.54C334.15,260.17,344.11,244.32,342.79,231.52Z"/><path class="cls-5" d="M338.4,304.27l49.2.48,1.14-26.84-8.84-1.14c-3.78-.49-2.93-5.84-2.94-9.66L373.17,232a45.13,45.13,0,0,0-18.26,12.25,88,88,0,0,0-4,25.3c-.07,3.09-3.36,5.8-6.34,6.64L339.35,278Z"/><path class="cls-2" d="M344.36,191.61c6.6-5.27,17.08-5.8,24-1.18,4,2.71,7.83,5.06,9,5.21,16.35,2.16,1.16,6.73,2.74,27.33,0,.11,1.41-5,5.37-5.94,7.08-1.73,5.28,10.14,5.28,10.14-2.31,11.77-11.85,8.83-12.28,8.35,0,0-.09.1-.25.29-1.49,2.46-14.13,9.6-18.91,11.7-3.43,1.51-7.07,2.08-9.29-1-4.55-6.23-7.91-12.8-10.15-25.3C338.58,214.16,344.36,191.61,344.36,191.61Z"/><path class="cls-5" d="M383.57,226.71c-.69,2-.22,4,1.05,4.4s2.87-.81,3.56-2.8.22-4-1.05-4.4S384.26,224.72,383.57,226.71Z"/><path class="cls-6" d="M316.93,345.29c-3.95,8.46-8.51,18.49-11.45,25.8a26.1,26.1,0,0,1-5.74,8.72l-5.58,5.6c-2.63-10.09-6.81-12.41-16.31-9.9,1.57-3.57,2.68-6.38,2.68-6.38,3.13-6.93,12.19-27.93,20.22-46.63,5.07-11.81,16.7-32.83,18.65-35.4,2.45-3.23,12.07-12.39,19.14-13.67,2.3-.42,9.27.58,9.37.63,1.48.83-.05,4.78,4.85,14.1,0,0,10.14,2.62,24.78-18.92a63.81,63.81,0,0,1,17.65,4.48.2.2,0,0,1,0,.07c-2.17,18.27,6.37,34.1,13.48,44a100.74,100.74,0,0,1-6.4,15.54c-12.18,22.47-7.78,33.33-6.87,44.37,0,0,10.16,56.26,11.53,58,0,0-35.59,17.88-89.37.51-3.25-1.05-1.72-6.62-1.72-6.62S322,388,321.12,375.2C320.12,359.55,318.14,350,316.93,345.29Z"/><path class="cls-6" d="M386.39,389.11l-.6-3.77c-2.93-18.47-4-25.38-1.11-35.17,1.77-5.94,5.47-13.6,12.84-28.87l1.62-3.36c1.37-2.84,2.77-5.68,4.18-8.49a92,92,0,0,0,5.34,8.35,101,101,0,0,1-6.4,15.53c-12.18,22.47-7.78,33.33-6.87,44.37,0,0,10.91,56.13,11.53,57.95A72.82,72.82,0,0,1,394.41,440C392,422.24,389,405.71,386.39,389.11Z"/><path class="cls-2" d="M415.68,397.86c2.56-33.62,11.28-33.42,20.81-20.83a1.06,1.06,0,0,1,.77.93l3.24,87.24c0,.15,5.41,5.92,8,8.78a9.88,9.88,0,0,1,1.76,2.67,10.53,10.53,0,0,1,.11,7.73c-1.09,3.08-2.27,4.81-3,5.05-2.11.65-4.77.15-4.47-2l1.16-8.33c-.46-.48-3.15-4.37-3.21-3.71-1,11.67-2.74,4.43-2.81,4.19l-20.33-75.13C417.67,404.22,415.7,398.06,415.68,397.86Z"/><path class="cls-6" d="M391.13,333.05l4.05-59.26c22.59-1.87,32.89,61.76,42.28,101.31a55.57,55.57,0,0,1,1.08,14.59c-.23,3.81-1.76,8.88-3.52,13.25a9.3,9.3,0,0,1-16.22,1.9,18.36,18.36,0,0,1-3.42-9.23C412.17,373.8,405.32,344.29,391.13,333.05Z"/><path class="cls-3" d="M348.8,178.44a29.93,29.93,0,0,1,20-2.55c12.07,0,31.14,3.19,30.6,52.24-.05,4.59.28,12.25.44,15.57.77,16.17,33.28,20.7,26,33.76-11.42,20.38-30.75,24.59-30.75,24.59-3.36.53,1.46-8.48-1.69-9.76-5.64-2.29-9.83-4-13-5.4a8,8,0,0,1-4.8-7.32l-.08-25.94L374,239.37l4.23-3.56c19.15,3.08,11.13-31,1.88-12.84,0,0-27.59-21.07-28.62-32.68,0,0-9.3,11.17-10.93,19.67C340.53,210,332.42,187.11,348.8,178.44Z"/><path class="cls-6" d="M308.45,347.94l.14-.37c1-2.63,3.43-8.76,5.24-8.56.52.06,1.78.92,2.71,7.18-3.86,8.27-8.2,17.85-11,24.92a26.1,26.1,0,0,1-5.74,8.72l-5.58,5.6a28.46,28.46,0,0,0-1.85-5.24A228.62,228.62,0,0,0,308.45,347.94Z"/><path class="cls-4" d="M316.63,435.65l16.94,4.82c1.4,35,10.59,73.52,23.75,111.59L326.42,603,279.77,771.69l-15.13,2.94C281.38,661.08,277.14,540,316.63,435.65Z"/><path class="cls-2" d="M285.91,337.1h0a1.17,1.17,0,0,0-.33-.62c-11.22-11.11-19.39-8.3-21.73-8s-4.32-11.55-6.25-12.49c-1.62-.76-6.52,2.11-8.72,6.38s1.83,10.53,4.45,12.87c2,1.84,16.31,4.91,24.56,5.26h0s-7.43,54,17.37,45.1C304.58,382.23,285.91,337.1,285.91,337.1Z"/><rect class="cls-3" x="260.5" y="291.96" width="4.71" height="10.67" rx="0.18" transform="translate(367.41 680.11) rotate(-153.79)"/><path class="cls-4" d="M241.19,330.54c5.87,0,8.88-5.13,9.55-6.43l18.39-38a2.28,2.28,0,0,0,.1-.21c.45-1,2-5.27-2.82-8.18-1.73-1,38.27,7.78,38.27,7.78s-7.09,4.81-12.31,15.12v0c-.67,1.38-15.12,31.26-15.89,32.84h0l-2.41,5c-3.26,6.74-11.34,7.87-20,3.5l-9.57-4.86C238,333.81,237.36,330.5,241.19,330.54Z"/><path class="cls-7" d="M316.92,290.94,307.67,289c-13.11-5.09-9.72-6.89-7.73-11.84l6.91-33a10,10,0,0,1,11.84-7.73l9.24,1.93a10,10,0,0,1,7.74,11.84l-6.91,33A10,10,0,0,1,316.92,290.94Z"/><path class="cls-8" d="M300.66,277.29l6.91-33c1.1-5.25,6.61-8.6,11.86-7.71L306,288.33C293.33,283.36,298.69,282.19,300.66,277.29Z"/><polygon class="cls-4" points="240.14 273.39 305.17 287.64 318.69 236.44 253.03 211.92 240.14 273.39"/><path class="cls-4" d="M137.57,205.09c-9,42.78-46.84,94.63-50.9,93.78S92,243,101,200.2s23.26-94.56,27.16-93.13C131.15,108.17,146.54,162.31,137.57,205.09Z"/><path class="cls-4" d="M128.12,107.07c.27.09.62.59,1,1.44-5.18,7.24-17.69,53.41-25.82,92.19-8.21,39.18-16.77,88.65-15,97.34-.75.61-1.32.9-1.65.83C82.61,298,92,243,101,200.2S124.22,105.64,128.12,107.07Z"/><path class="cls-6" d="M137.6,188l-9.39,44.79c-4.5-1.57-6.11-12.14-3.6-24.14S132.85,187.62,137.6,188Z"/><path class="cls-7" d="M86.67,298.87l154.55-30.62,11-52.41c-42.34-37.14-123.32-109.1-124-108.73C149.93,164.17,132.65,254.61,86.67,298.87Z"/></svg>