<?xml version="1.0" encoding="utf-8"?>
<!-- Generator: Adobe Illustrator 24.1.3, SVG Export Plug-In . SVG Version: 6.00 Build 0)  -->
<svg version="1.1" xmlns="http://www.w3.org/2000/svg" xmlns:xlink="http://www.w3.org/1999/xlink" x="0px" y="0px"
	 viewBox="0 0 1440 810" style="enable-background:new 0 0 1440 810;" xml:space="preserve">
<style type="text/css">
	.st0{fill:#EFF7FF;}
	.st1{fill:#018CF2;}
</style>
<g id="Layer_1">
	<g id="Layer_1_1_">
		<path class="st0" d="M94,176.1c12.5-12.5,22.3-27.1,29.2-43.3c7.1-16.8,10.7-34.6,10.7-53s-3.6-36.2-10.7-53
			C119.1,17.3,114,8.3,108,0H35.3C65.2,14.2,86,44.6,86,79.9c0,47.9-38.4,87-86,88.3V216c17.5-0.3,34.6-3.9,50.7-10.7
			C66.9,198.5,81.5,188.6,94,176.1z"/>
	</g>
</g>
<g id="Layer_2">
	<g id="Layer_2_1_">
		<path class="st0" d="M289.5,345.9c13.4,31.7,32.6,60.2,57,84.6s52.9,43.6,84.6,57c32.8,13.9,67.7,20.9,103.6,20.9
			s70.8-7,103.6-20.9c31.7-13.4,60.2-32.6,84.6-57c24.4-24.4,43.6-52.9,57-84.6c13.9-32.8,20.9-67.7,20.9-103.6h-47.9
			c0,29.5-5.8,58.1-17.1,85c-11,26-26.7,49.3-46.8,69.4s-43.4,35.8-69.4,46.8c-26.9,11.4-55.5,17.1-85,17.1s-58.1-5.8-85-17.1
			c-26-11-49.3-26.7-69.4-46.8c-20.1-20.1-35.8-43.4-46.8-69.4c-11.4-26.9-17.1-55.5-17.1-85V0h-47.9v242.2
			C268.6,278.2,275.6,313,289.5,345.9z"/>
	</g>
</g>
<g id="Layer_3">
	<g id="Layer_3_1_">
		<rect x="444.9" y="67.2" class="st0" width="47.9" height="141.3"/>
	</g>
</g>
<g id="Layer_4">
	<g id="Layer_4_1_">
		<path class="st0" d="M1228.9,93.7c-40.5,17.1-76.8,41.6-108,72.8s-55.7,67.5-72.8,108c-17.7,41.9-26.7,86.4-26.7,132.3h47.9
			c0-39.4,7.7-77.6,22.9-113.6c14.7-34.8,35.8-66,62.6-92.8c26.8-26.8,58-47.9,92.8-62.6c36-15.2,74.2-22.9,113.6-22.9
			c26.9,0,53.3,3.6,78.8,10.7V76.1c-25.6-6.1-52-9.2-78.8-9.2C1315.3,67,1270.8,76,1228.9,93.7z"/>
	</g>
</g>
<g id="Layer_5">
	<g id="Layer_6">
		<path class="st0" d="M1357.2,597.8c-25,0-49.2-4.9-72.1-14.5c-22-9.3-41.8-22.7-58.9-39.7c-17-17-30.4-36.8-39.7-58.9
			c-9.6-22.8-14.5-47.1-14.5-72.1h-47.9c0,31.4,6.2,62,18.3,90.7c11.7,27.7,28.5,52.7,49.9,74.1c21.4,21.4,46.3,38.2,74.1,49.9
			c28.7,12.2,59.3,18.3,90.7,18.3c28.6,0,56.4-5.1,82.8-15.2v-52.2c-3.1,1.6-6.3,3.1-9.5,4.4
			C1407.3,592.7,1382.7,597.8,1357.2,597.8z"/>
	</g>
</g>
<g id="Layer_6_1_">
	<g id="Layer_5_1_">
		<rect x="1259.4" y="412.6" class="st0" width="141.3" height="47.9"/>
	</g>
</g>
<g id="Layer_7">
	<g id="Layer_7_1_">
		<path class="st0" d="M979.3,626.3c-12.5-12.5-27.1-22.3-43.3-29.2c-16.8-7.1-34.6-10.7-53-10.7s-36.2,3.6-53,10.7
			c-16.2,6.9-30.8,16.7-43.3,29.2s-22.3,27.1-29.2,43.3c-7.1,16.8-10.7,34.6-10.7,53h47.9c0-48.7,39.6-88.3,88.3-88.3
			s88.3,39.6,88.3,88.3h47.9c0-18.4-3.6-36.2-10.7-53C1001.6,653.4,991.8,638.8,979.3,626.3z"/>
	</g>
</g>
<g id="Layer_8">
	<g id="Layer_8_1_">
		<path class="st0" d="M419.8,717.6c16.8-16.8,36.4-30,58.2-39.2c22.5-9.5,46.5-14.4,71.2-14.4v-47.9c-31.2,0-61.4,6.1-89.9,18.1
			c-27.5,11.6-52.2,28.3-73.4,49.5c-21.2,21.2-37.8,45.9-49.5,73.4c-7.2,17.1-12.3,34.7-15.2,52.9H370c2.4-11.7,5.9-23.1,10.6-34.2
			C389.8,754,403,734.4,419.8,717.6z"/>
	</g>
</g>
<g id="Layer_9">
	<g id="Layer_9_1_">
		<path class="st0" d="M153.4,560.7c18.4,18.4,28.5,42.8,28.5,68.7c0,26-10.1,50.4-28.5,68.7s-42.8,28.5-68.7,28.5v47.9
			c19.6,0,38.6-3.8,56.5-11.4c17.3-7.3,32.8-17.8,46.1-31.1c13.3-13.3,23.8-28.8,31.1-46.1c7.6-17.9,11.4-36.9,11.4-56.5
			s-3.8-38.6-11.4-56.5c-7.3-17.3-17.8-32.8-31.1-46.1s-28.8-23.8-46.1-31.1c-17.9-7.6-36.9-11.4-56.5-11.4H0v47.9h84.7
			C110.7,532.2,135.1,542.3,153.4,560.7z"/>
	</g>
</g>
<g id="Layer_10">
	<g id="Layer_10_1_">
		<rect y="343" class="st0" width="141.3" height="47.9"/>
	</g>
</g>
<g id="Layer_11">
	<g id="Layer_12">
		<rect x="444.9" y="67.2" class="st1" width="47.9" height="141.3"/>
	</g>
</g>
<g id="Layer_12_1_">
	<g id="Layer_13">
		<rect y="343" class="st1" width="141.3" height="47.9"/>
	</g>
</g>
<g id="Layer_13_1_">
	<g id="Layer_11_1_">
		<rect x="1259.4" y="412.6" class="st1" width="141.3" height="47.9"/>
	</g>
</g>
</svg>
