<?xml version="1.0" encoding="utf-8"?>
<!-- Generator: Adobe Illustrator 24.1.3, SVG Export Plug-In . SVG Version: 6.00 Build 0)  -->
<svg version="1.1" id="Layer_1" xmlns="http://www.w3.org/2000/svg" xmlns:xlink="http://www.w3.org/1999/xlink" x="0px" y="0px"
	 viewBox="0 0 1440 507" style="enable-background:new 0 0 1440 507;" xml:space="preserve">
<style type="text/css">
	.st0{fill:#1E1E1E;}
</style>
<g>
	<path class="st0" d="M1440,3.9C1440,3.9,1439.9,3.9,1440,3.9l-0.1,49.5h0.1V3.9z"/>
	<path class="st0" d="M1439.9,0h-18.6c6.3,1.1,12.5,2.4,18.6,3.9V0z"/>
	<path class="st0" d="M94,103.9c12.5-12.5,22.3-27.1,29.2-43.3c7.1-16.8,10.7-34.6,10.7-53c0-2.5-0.1-5.1-0.2-7.6h-48
		C85.9,2.5,86,5.1,86,7.7c0,47.9-38.4,87-86,88.3v47.8c17.5-0.3,34.6-3.9,50.7-10.7C66.9,126.3,81.5,116.4,94,103.9z"/>
	<path class="st0" d="M289.5,273.7c13.4,31.7,32.6,60.2,57,84.6s52.9,43.6,84.6,57c32.8,13.9,67.7,20.9,103.6,20.9
		s70.8-7,103.6-20.9c31.7-13.4,60.2-32.6,84.6-57c24.4-24.4,43.6-52.9,57-84.6c13.9-32.8,20.9-67.7,20.9-103.6h-47.9
		c0,29.5-5.8,58.1-17.1,85c-11,26-26.7,49.3-46.8,69.4s-43.4,35.8-69.4,46.8c-26.9,11.4-55.5,17.1-85,17.1s-58.1-5.8-85-17.1
		c-26-11-49.3-26.7-69.4-46.8c-20.1-20.1-35.8-43.4-46.8-69.4c-11.4-26.9-17.1-55.5-17.1-85V0h-47.9v170
		C268.6,206,275.6,240.8,289.5,273.7z"/>
	<rect x="444.9" class="st0" width="47.9" height="136.3"/>
	<path class="st0" d="M1421.3,0h-119.8c-24.9,4.4-49.1,11.6-72.6,21.5c-40.5,17.1-76.8,41.6-108,72.8s-55.7,67.5-72.8,108
		c-17.7,41.9-26.7,86.4-26.7,132.3h47.9c0-39.4,7.7-77.6,22.9-113.6c14.7-34.8,35.8-66,62.6-92.8c26.8-26.8,58-47.9,92.8-62.6
		c36-15.2,74.2-22.9,113.6-22.9c26.9,0,53.2,3.6,78.7,10.7V3.9C1433.7,2.4,1427.5,1.1,1421.3,0z"/>
	<rect x="1259.4" y="340.4" class="st0" width="141.3" height="47.9"/>
	<path class="st0" d="M1226.2,471.4c-17-17-30.4-36.8-39.7-58.9c-9.6-22.8-14.5-47.1-14.5-72.1h-47.9c0,31.4,6.2,62,18.3,90.7
		c11.7,27.7,28.5,52.7,49.9,74.1c0.3,0.3,0.5,0.5,0.8,0.8h81C1256.5,497.1,1240.4,485.5,1226.2,471.4z"/>
	<path class="st0" d="M723.8,55.5c12.5,12.5,27.1,22.3,43.3,29.2c16.8,7.1,34.6,10.7,53,10.7s36.2-3.6,53-10.7
		c16.2-6.9,30.8-16.7,43.3-29.2s22.3-27.1,29.2-43.3c1.7-4,3.2-8.1,4.5-12.2h-51.7c-14.8,28.2-44.3,47.5-78.3,47.5
		S756.6,28.2,741.8,0h-51.7c1.3,4.1,2.8,8.2,4.5,12.2C701.5,28.4,711.3,43,723.8,55.5z"/>
	<path class="st0" d="M187.3,454.6c-13.3-13.3-28.8-23.8-46.1-31.1c-17.9-7.6-36.9-11.4-56.5-11.4H0V460h84.7
		c26,0,50.4,10.1,68.7,28.5c5.4,5.4,10,11.2,13.9,17.5h53.2c-0.7-1.8-1.4-3.5-2.1-5.3C211.1,483.4,200.6,467.9,187.3,454.6z"/>
	<rect y="270.8" class="st0" width="141.3" height="47.9"/>
</g>
</svg>
