<svg id="Capa_1" data-name="Capa 1" xmlns="http://www.w3.org/2000/svg" xmlns:xlink="http://www.w3.org/1999/xlink" viewBox="0 0 294.64 386.91"><defs><style>.cls-1,.cls-12{fill:none;}.cls-2{clip-path:url(#clip-path);}.cls-3{fill:#221f20;}.cls-4{fill:#ae8266;}.cls-5{fill:#04622e;}.cls-6{opacity:0.67;}.cls-7{fill:#084722;}.cls-8{clip-path:url(#clip-path-2);}.cls-9{fill:#9a755b;opacity:0.39;}.cls-10{fill:#fff;stroke:#444343;stroke-width:0.75px;}.cls-10,.cls-12{stroke-miterlimit:10;}.cls-11{fill:#4b4b4b;}.cls-12{stroke:#4b4b4b;}</style><clipPath id="clip-path"><rect class="cls-1" width="294.64" height="386.91"/></clipPath><clipPath id="clip-path-2"><rect class="cls-1" x="111.6" y="274.24" width="78.9" height="37.08"/></clipPath></defs><g class="cls-2"><ellipse class="cls-3" cx="151.39" cy="345.85" rx="5.32" ry="5.36"/><rect class="cls-3" x="150.33" y="320.71" width="3.2" height="64.81" rx="1.21"/><path class="cls-4" d="M153.07,233.56V398.32H20.39l-3.26-.93c0-88.38,82.47-87.65,82.47-87.65,8.12,0,12.07-14.36,15.5-25a39,39,0,0,0,1.42-5.17,95.26,95.26,0,0,0,1.85-9.53c.29-2,.56-4,.85-6.09a276.56,276.56,0,0,0,1.56-31.54s17.87,1.19,32.29,1.19"/><path class="cls-4" d="M274.59,398.32H152.17V233.56h.26c13.26,0,29.74-1.19,29.74-1.19a286.21,286.21,0,0,0,1.48,31.28c.24,2,.5,4,.74,6,.52,3.45,1,6.71,1.74,9.79v.05c.23,1.41.59,2.65.91,3.91,3.18,11.37,7.74,24.93,15.44,24.93,0,0,47.19,7.15,75,89.08"/><path class="cls-1" d="M169.25,269.47c-2.86-1.27-5.31-1.51-8.48-2.09-1.45-.26-7.75-1-8.79-1.21a1.65,1.65,0,0,0-.38-.05h-1.09a1.74,1.74,0,0,0-.39.05c-1,.22-7.34.95-8.79,1.21-3.16.58-5.62.82-8.48,2.09-5.55,2.47-9.55,5.34-8.75,10.9.66,4.56,4.84,9.55,9.89,11.75,4.21,1.83,13,.8,9.63-4-1.11-1.58-3.2-2.31-5-3.27a1.64,1.64,0,0,1,.47-3.05,44.83,44.83,0,0,1,11.07-1.05h1.72A44.91,44.91,0,0,1,163,281.83a1.64,1.64,0,0,1,.47,3.05c-1.78,1-3.87,1.69-5,3.27-3.33,4.77,5.41,5.8,9.62,4,5.06-2.2,9.24-7.19,9.9-11.75C178.8,274.81,174.81,271.94,169.25,269.47Z"/><path class="cls-1" d="M95.17,251.29c7,7.54,14.31,15.56,25.65,19.06a1.68,1.68,0,0,0,1.76-.53A27.87,27.87,0,0,1,135,261.4c5.15-1.91,10-.73,15.06-1.94a1.49,1.49,0,0,1,.36,0h1.36a1.49,1.49,0,0,1,.36,0c5.06,1.21,9.9,0,15.07,1.94a27.78,27.78,0,0,1,12.36,8.42,1.7,1.7,0,0,0,1.77.53c11.33-3.5,18.64-11.52,25.64-19.06,6.59-7.1,8.72-15.55,15-22.79.64-.73,1.27-1.41,1.88-2.05H78.27c.61.64,1.24,1.32,1.88,2.05C86.44,235.74,88.58,244.19,95.17,251.29Z"/><path class="cls-5" d="M265,328.54l-45.24-16.68c1.66.76,2,1.08.8,2.47-.21.24-.49.52-.8.84-5.68,5.7-16.14,10.44-23.88,15-10,5.83-15.77,9.28-25.81,15-2.6-.51-15.38-13.23-19.47-19.29-4.43,6.21-17.49,18.78-20.17,19.29C120,339.34,114,335.85,103.5,330,95.42,325.39,87,322.77,81.1,317c-.32-.32-2.23-.77-2.45-1-1.66-1.8-.62-3,2.5-4.48,1.26-.58,3.54-2,4.64-2.59L30.63,328.54C15.57,334.11.55,357.7-6.88,388.73H302.53C295.1,357.7,280.08,334.11,265,328.54Z"/><g class="cls-6"><rect class="cls-3" x="-6.98" y="376.45" width="17.99" height="12.74"/><rect class="cls-3" x="29" y="376.45" width="17.99" height="12.74"/><rect class="cls-3" x="64.97" y="376.45" width="17.99" height="12.74"/><rect class="cls-3" x="100.95" y="376.45" width="17.98" height="12.74"/><rect class="cls-3" x="136.92" y="376.45" width="17.99" height="12.74"/><rect class="cls-3" x="172.9" y="376.45" width="17.99" height="12.74"/><rect class="cls-3" x="208.87" y="376.45" width="17.99" height="12.74"/><rect class="cls-3" x="244.85" y="376.45" width="17.98" height="12.74"/><rect class="cls-3" x="280.81" y="376.45" width="17.99" height="12.74"/><rect class="cls-3" x="82.96" y="310.63" width="17.99" height="12.75"/><rect class="cls-3" x="190.88" y="310.63" width="17.98" height="12.75"/><rect class="cls-3" x="64.97" y="324.26" width="17.99" height="12.74"/><rect class="cls-3" x="100.95" y="324.26" width="17.98" height="12.74"/><rect class="cls-3" x="136.92" y="324.26" width="17.99" height="12.74"/><rect class="cls-3" x="172.9" y="324.26" width="17.99" height="12.74"/><rect class="cls-3" x="208.87" y="324.26" width="17.99" height="12.74"/><rect class="cls-3" x="46.98" y="337.71" width="17.98" height="12.75"/><rect class="cls-3" x="82.96" y="337.71" width="17.99" height="12.75"/><rect class="cls-3" x="118.93" y="337.71" width="17.99" height="12.75"/><rect class="cls-3" x="154.91" y="337.71" width="17.99" height="12.75"/><rect class="cls-3" x="190.88" y="337.71" width="17.98" height="12.75"/><rect class="cls-3" x="226.86" y="337.71" width="17.99" height="12.75"/><rect class="cls-3" x="29" y="350.46" width="17.99" height="12.75"/><rect class="cls-3" x="64.97" y="350.46" width="17.99" height="12.75"/><rect class="cls-3" x="100.95" y="350.46" width="17.98" height="12.75"/><rect class="cls-3" x="136.92" y="350.46" width="17.99" height="12.75"/><rect class="cls-3" x="172.9" y="350.46" width="17.99" height="12.75"/><rect class="cls-3" x="208.87" y="350.46" width="17.99" height="12.75"/><rect class="cls-3" x="244.85" y="350.46" width="17.98" height="12.75"/><rect class="cls-3" x="11.01" y="363.2" width="17.99" height="12.74"/><rect class="cls-3" x="46.98" y="363.2" width="17.98" height="12.74"/><rect class="cls-3" x="82.96" y="363.2" width="17.99" height="12.74"/><rect class="cls-3" x="118.93" y="363.2" width="17.99" height="12.74"/><rect class="cls-3" x="154.91" y="363.2" width="17.99" height="12.74"/><rect class="cls-3" x="190.88" y="363.2" width="17.98" height="12.74"/><rect class="cls-3" x="226.86" y="363.2" width="17.99" height="12.74"/><rect class="cls-3" x="262.83" y="363.2" width="17.98" height="12.74"/><path class="cls-3" d="M11,363.2V350.46H7.88c-1.16,3.92-5.24,8.29-6.24,13Z"/><path class="cls-3" d="M29,337.71H17.33c-1.13,1.1-2.23,2.3-3.32,3.57l-3,9.18H29Z"/><polygon class="cls-3" points="29 328.78 29 337.01 46.98 337.01 46.98 324.26 41.54 324.26 41.33 324.1 28.91 328.56 29 328.78"/><polygon class="cls-3" points="64.97 316.58 46.98 323.06 46.98 323.38 64.97 323.38 64.97 316.58"/><polygon class="cls-3" points="126.28 310.63 118.93 310.63 118.93 323.38 136.92 323.38 136.92 318.1 126.28 310.63"/><polygon class="cls-3" points="244.84 322.06 226.86 315.58 226.86 323.38 244.84 323.38 244.84 322.06"/><polygon class="cls-3" points="262.83 328.53 251.24 324.36 244.84 324.26 244.84 337.01 262.83 337.01 262.83 328.53"/><path class="cls-3" d="M280.81,341.27q-1.62-1.9-3.3-3.56H262.83v12.75h18Z"/><path class="cls-3" d="M287.55,350.46h-6.74V363.2l13.75.38A108.91,108.91,0,0,0,287.55,350.46Z"/></g><path class="cls-7" d="M150.89,321.39c-.45-.45-.9-.81-1.18-1.06-4.53-4-13-6.37-20.23-8.83l-15.12-6.11c-1.26-.6-2.48-1.24-3.62-1.91-3.92-2.32-3.55-4.76-6.32-7.25-8.48-7.61-13.66,8.68-17.08,11.53a21.94,21.94,0,0,1-3.44,2.34c-1.1.62-2.26,1.2-3.53,1.79-3.11,1.44-4.21,1.46-2.56,3.26.22.24.51.53.84.85,5.92,5.76,16.84,10.56,24.92,15.13C114,337,120,340.51,130.51,346.29c2.68-.51,15.74-13.08,20.16-19.29a8.56,8.56,0,0,1-1.22-2.31C149.12,323.34,150.07,322.19,150.89,321.39Z"/><path class="cls-7" d="M219.84,313c-.46-.21-1-.45-1.66-.76a29,29,0,0,1-6.67-4.07c-3.28-2.82-8.24-18.93-16.36-11.4-2.66,2.46-2.3,4.87-6.06,7.16-.82.5-1.68,1-2.57,1.43-3.52,1.82-7.47,3.37-11.24,4.94-7.46,3.1-18.28,5.46-23.54,10.3-.2.18-.51.44-.85.76a3.3,3.3,0,0,1,1.21,3.05,8.94,8.94,0,0,1-1.43,2.56c4.09,6.06,16.88,18.78,19.48,19.29,10-5.71,15.8-9.16,25.81-15,7.74-4.52,18.2-9.26,23.88-15,.31-.32.59-.6.79-.84C221.88,314.11,221.49,313.79,219.84,313Z"/><path class="cls-7" d="M150.89,321.39c-.82.8-1.77,1.95-1.44,3.3a8.56,8.56,0,0,0,1.22,2.31,8.94,8.94,0,0,0,1.43-2.56A3.3,3.3,0,0,0,150.89,321.39Z"/><path class="cls-3" d="M154.34,341.46a3.13,3.13,0,1,1-3.12-3.15A3.14,3.14,0,0,1,154.34,341.46Z"/><g class="cls-8"><path class="cls-9" d="M190.5,294.14v.09c-3.5,4.44-15.56,17.09-39.42,17.09h-.2a53.09,53.09,0,0,1-39.25-17c.79-3.8,1.48-7.89,2-12.08.28-2.55.58-5.1.9-7.68a198.73,198.73,0,0,0,36,3.71h.42a184.8,184.8,0,0,0,36.75-4c.27,2.5.59,5,.89,7.51.6,4.4,1.19,8.52,2,12.39"/></g><path class="cls-4" d="M150.69,63.44c-88,0-88.47,77.19-84.56,127.71-6-12-20.69-14.13-19.22,4.73,1.41,18.17,23.44,33.44,23.1,31.31,7.2,41.59,48.57,65.59,80.68,65.59l.65,0V63.46l-.65,0"/><path class="cls-4" d="M151.13,63.44c88,0,87.55,74.95,83.64,125.47,6-12,20.61-11.89,19.15,7-1.42,18.17-22.45,33.44-22.11,31.31-7.21,41.59-48.59,65.59-80.68,65.59l-.67,0V63.46l.67,0"/><path class="cls-10" d="M151.18,100.75c2.17-3.27,5.58-3.75,9.23-3.4a6.94,6.94,0,0,1,6.15,7c.05,9.54,0,19.08,0,28.61,0,.65,0,1.21-1,1.23s-1-.67-1-1.32q-.08-14.43-.16-28.85c0-3.44-2.2-5.22-5.93-4.78a13.91,13.91,0,0,0-2.32.41q-3.93,1.18-3.93,5l0,27.4c0,.4,0,.81,0,1.21,0,.69-.41,1-1.08.86a1.73,1.73,0,0,1-1-.82,2.81,2.81,0,0,1-.05-1.2q0-13.69-.06-27.39c0-2.8-1.3-4.66-3.93-5.25-4.31-1-8,.67-8.15,5.24-.08,2.47,0,5,0,7.42L137.83,133c0,.63.17,1.43-1,1.27-.28,0-.55-.38-.74-.64s0-.39,0-.59q0-14.43.06-28.86a6.61,6.61,0,0,1,4.62-6.33c3.5-1.22,7.19-.62,9.29,1.54A14.75,14.75,0,0,1,151.18,100.75Z"/><path class="cls-3" d="M154.42,50.05c2.62.05,9.64.85,8.6,4.29,13.7,1.74,35.65,4.49,46.93,11.84a47.67,47.67,0,0,1,18.41,21.27c9.4,21.88,7.77,48,8.35,71.77,3.64.38,10.44,4,10.76,11.45s-3.59,18.32-24.36,23.17-57.49,7.56-78.26,7.47-51-2-64.24-4.95-25.2-12-26-18.59,2.06-13,8.33-14.53a363.48,363.48,0,0,1,4.45-59.55c1.71-11.66,4-21.18,14.13-29.95C98.4,59.18,123,55.26,146.21,53.9c-1-3.06,5.85-3.9,8.21-3.85Z"/><path class="cls-11" d="M129.2,137.68v-1.51q0-16.08,0-32.17c0-9.93,11.53-16.22,21-11.49a1.93,1.93,0,0,0,1.51-.05c7.45-4,18.27.07,20.24,7.76a19.45,19.45,0,0,1,.6,4.55c.12,10.59.18,21.19.25,31.78v1.29H158.23V104.7h-.37v33c-.73,0-1.15.07-1.58.07-3.59,0-7.18,0-10.77,0-1.31,0-1.66-.33-1.66-1.52,0-9.86,0-19.71,0-29.56,0-.72-.08-1.43-.12-2.14h-.42v33.09Zm21.6-36.95c-.4-.5-.73-1-1.14-1.41-2.14-2.2-5.91-2.81-9.48-1.56a6.76,6.76,0,0,0-4.71,6.46q0,14.72,0,29.43c0,.21-.08.46,0,.61s.46.61.75.65c1.16.16,1-.66,1-1.3l.12-21.23c0-2.52-.05-5,0-7.57.14-4.66,3.91-6.34,8.31-5.36,2.68.6,4,2.5,4,5.35q.06,14,.1,27.93a2.78,2.78,0,0,0,.06,1.23,1.81,1.81,0,0,0,1,.84.8.8,0,0,0,1.09-.88c0-.41,0-.83,0-1.24q0-14-.08-27.94c0-2.59,1.32-4.3,4-5.1a14.42,14.42,0,0,1,2.36-.43c3.81-.45,6,1.36,6.06,4.87q.09,14.72.21,29.42c0,.66-.14,1.36,1,1.35s1-.6,1-1.26c0-9.72,0-19.45-.06-29.17a7.09,7.09,0,0,0-6.28-7.17C156.48,96.9,153,97.4,150.8,100.73Z"/><path class="cls-12" d="M73.34,163.68c-.54,2,85.83,16.24,153.54-1"/><path class="cls-3" d="M222,228.5c-6.31,7.24-8.44,15.69-15,22.79-7,7.54-14.31,15.56-25.64,19.06a1.7,1.7,0,0,1-1.77-.53,27.78,27.78,0,0,0-12.36-8.42c-5.17-1.91-10-.73-15.07-1.94a1.49,1.49,0,0,0-.36,0h-1.36a1.49,1.49,0,0,0-.36,0c-5,1.21-9.91,0-15.06,1.94a27.87,27.87,0,0,0-12.37,8.42,1.68,1.68,0,0,1-1.76.53c-11.34-3.5-18.65-11.52-25.65-19.06-6.59-7.1-8.73-15.55-15-22.79-.64-.73-1.27-1.41-1.88-2.05H68.92c1.58,11.31,2.94,23.58,7.86,34.26,5.47,11.84,27.22,32,40.7,38.54,7.33,3.54,24.17,6.23,32.71,5.87h1.72c8.53.36,25.39-2.33,32.72-5.87,13.47-6.52,35.23-26.7,40.69-38.54,4.93-10.68,6.28-22.95,7.85-34.26h-9.33C223.23,227.09,222.6,227.77,222,228.5Zm-44,51.87c-.66,4.56-4.84,9.55-9.9,11.75-4.21,1.83-13,.8-9.62-4,1.1-1.58,3.19-2.31,5-3.27a1.64,1.64,0,0,0-.47-3.05,44.91,44.91,0,0,0-11.08-1.05h-1.72a44.83,44.83,0,0,0-11.07,1.05,1.64,1.64,0,0,0-.47,3.05c1.77,1,3.86,1.69,5,3.27,3.33,4.77-5.42,5.8-9.63,4-5.05-2.2-9.23-7.19-9.89-11.75-.8-5.56,3.2-8.43,8.75-10.9,2.86-1.27,5.32-1.51,8.48-2.09,1.45-.26,7.75-1,8.79-1.21a1.74,1.74,0,0,1,.39-.05h1.09a1.65,1.65,0,0,1,.38.05c1,.22,7.34.95,8.79,1.21,3.17.58,5.62.82,8.48,2.09C174.81,271.94,178.8,274.81,178,280.37Z"/><rect class="cls-1" x="-13.32" y="85.35" width="244.34" height="380.4"/></g></svg>