<svg id="Capa_1" data-name="Capa 1" xmlns="http://www.w3.org/2000/svg" xmlns:xlink="http://www.w3.org/1999/xlink" viewBox="0 0 294.64 386.91"><defs><style>.cls-1{fill:none;}.cls-2{clip-path:url(#clip-path);}.cls-3{fill:#f5d7b3;}.cls-4{fill:#29312f;}.cls-5{fill:#e9e9ea;}.cls-6{fill:#212623;}.cls-7{fill:#fcfcfc;}.cls-8{fill:#27252d;}.cls-9{fill:#605d62;}.cls-10{fill:#4c3312;}.cls-11{opacity:0.11;}.cls-12{clip-path:url(#clip-path-2);}.cls-13{fill:#c89f81;}</style><clipPath id="clip-path"><rect class="cls-1" width="294.64" height="386.91"/></clipPath><clipPath id="clip-path-2"><rect class="cls-1" x="125.42" y="264.51" width="43.61" height="26.42"/></clipPath></defs><g class="cls-2"><path class="cls-3" d="M180.23,289c-5,0-8.16-7-10.21-17.47-.2-1.16-.44-2.3-.58-3.58v-.05c-.45-2.83-.79-5.82-1.13-9-.16-1.79-.32-3.63-.48-5.48-.72-9.24-1-19.21-1-28.7,0,0-10.62,1.08-19.18,1.08h-.16c-8.55,0-19.13-1.08-19.13-1.08,0,9.55-.22,19.64-.92,28.93-.18,1.91-.34,3.74-.51,5.59-.28,3.06-.65,6-1.09,8.75-.23,1.67-.5,3.24-.85,4.74-2,9.8-5.11,16.26-9.92,16.26,0,0-48.12,6-48.12,87.15l1.94.86H226.49c1.17-.56,1.86-.86,1.86-.86C228.35,295,180.23,289,180.23,289Z"/><path class="cls-3" d="M145.07,58.34C66,57.43,64.76,129.46,67.79,176.67c-5.3-11.22-21.38-8-20.27,9.65,1.1,17,23.67,26,23.38,24.05C77,249.25,114,272.09,142.82,272.42l.6,0,2.25-214h-.6"/><path class="cls-3" d="M144.29,58.82c82.35,0,82.83,72,79.17,119.21,5.65-11.16,22.37-7.71,21,9.88-1.3,17-24.92,25.75-24.59,23.78-6.75,38.81-45.5,61.22-75.56,61.22-.19,0-.41,0-.63,0V58.82h.63"/><path class="cls-4" d="M171.23,394.7c-1.11-1.38-2.26-2.9-3.46-4.35a6.57,6.57,0,0,0-.44-.5c-2.26-3-4.6-5.9-6.84-8.8-1.91-2.41-3.73-4.79-5.58-7.29-6.92-9.09-12.87-17.37-16.43-23.21a100.66,100.66,0,0,1-10.08-22.33,27.19,27.19,0,0,1-.89-2.74,2.62,2.62,0,0,1-.17-.57,26.63,26.63,0,0,1-.7-2.69,4.84,4.84,0,0,1-.33-1.23c-2.67-11.35-3-22.28.09-30.85.11-.34.29-.59.41-.9-19,2.66-96.47,18.78-96.47,104.65l4,1.05H171.46Z"/><path class="cls-4" d="M135.74,395.16c1.07-1.35,2.09-2.85,3.16-4.28a4.75,4.75,0,0,1,.42-.49c2-2.95,4.18-5.82,6.27-8.67,1.72-2.38,3.37-4.72,5.06-7.18,6.29-9,11.75-17.12,15-22.87a103.82,103.82,0,0,0,9.17-22c.31-.91.58-1.83.85-2.7a1.44,1.44,0,0,0,.14-.56c.23-.89.44-1.76.66-2.65.11-.37.17-.78.27-1.22,2.41-11.17,2.67-21.94-.1-30.38a6.47,6.47,0,0,0-.39-.89c17.35,2.62,88,18.5,88,103.09l-3.6,1.05H135.55Z"/><path class="cls-5" d="M182.9,317.82c.34,8.37-13.76,46.47-24.09,70.85H133.13c-10.34-24.32-24.43-62.48-24.15-71a51.66,51.66,0,0,1,4-19.34,54.23,54.23,0,0,1,7.4-11.93,3.6,3.6,0,0,0,.34-.36h.75L146,305l24.43-19h.77a4.76,4.76,0,0,0,.51.64,64.92,64.92,0,0,1,5.61,8.35c.51,1.05,1,2.11,1.51,3.15,2.64,5.92,3.83,12.08,4.12,19.61"/><path class="cls-6" d="M136.74,388.67H123.17c-.61-.78-1.14-1.52-1.67-2.2C93.71,350,89.39,323.09,89.39,323.09l11.48-6.35L93.79,311s2.75-3.85,7.7-9.57a47.67,47.67,0,0,1,5.64-5.13c3.93-3,8.16-5.7,9.11-5.92-.33.48-3.27,5.09-2.51,27.15.1,1.47.15,2.88.34,4.41,0,.38.09.69.14,1,.08.73.19,1.41.32,2.15a1.29,1.29,0,0,0,.06.47c.09.72.23,1.47.37,2.2,2.08,11.05,6.54,24.1,11.44,36.54.8,2,1.61,3.89,2.41,5.82.95,2.34,2,4.77,2.95,7.07.62,1.32,1.15,2.61,1.7,3.87s1.24,2.83,1.87,4.31l1.41,3.3"/><path class="cls-6" d="M202.6,323.09s-4.27,26.89-32.12,63.38c-.51.68-1.1,1.42-1.73,2.2H155.33c3.56-8,7.79-17.61,11.55-27.47.14-.32.22-.62.32-.88,0-.07.05-.07.05-.11,4.55-11.91,8.45-24,10.12-34.38a4.37,4.37,0,0,0,.13-.7c.15-.78.23-1.52.34-2.29,0-.27,0-.58.08-.86.18-1.5.24-3,.34-4.45.37-12-.28-18.86-1-22.7-.14-.68-.28-1.26-.41-1.77,0-.11-.06-.15-.06-.26a8.7,8.7,0,0,0-1-2.42c.91.22,5.06,2.88,9,5.92h0a48.36,48.36,0,0,1,5.69,5.15c4.88,5.7,7.64,9.55,7.64,9.55l-7.07,5.74Z"/><path class="cls-7" d="M175.85,289.69c-1.18-3.19-4-6.16-5.08-8.69-1.72-4.19-3.31-7.88-3.31-7.88-.39,4-4.09,15.27-11.77,21.79s-11.66,9.56-8.75,10.21,15.25,18.56,19.18,23.37,3.3,9.28,4.33,2.77,4.5-13.09,4.84-21.57,3.72-11.49.56-20"/><path class="cls-7" d="M136.3,294.91c-7.68-6.52-11.39-17.8-11.77-21.81,0,0-1.58,3.71-3.32,7.9-1,2.53-3.91,5.5-5.08,8.69-3.16,8.51.21,11.48.56,20s3.81,15.08,4.84,21.57.37,2,4.31-2.77,16.28-22.71,19.19-23.37-1.05-3.69-8.73-10.21"/><path class="cls-8" d="M171.23,394.62c-1.11-1.52-2.26-3.2-3.46-4.81a7,7,0,0,0-.44-.54c-2.26-3.31-4.6-6.53-6.84-9.73-1.91-2.67-3.73-5.3-5.58-8.06-6.92-10.05-12.87-19.2-16.43-25.65a117.31,117.31,0,0,1-10.08-24.69c-.36-1-.65-2.06-.89-3a3,3,0,0,1-.17-.63c-.3-1-.5-2-.7-3a5.76,5.76,0,0,1-.33-1.36c-2.67-12.54-3-24.62.09-34.1.11-.37.29-.65.41-1-19,2.94-96.47,20.76-96.47,115.67l4,1.17H171.46Z"/><path class="cls-8" d="M135.74,395.14c1.07-1.5,2.09-3.16,3.16-4.74a6.59,6.59,0,0,1,.42-.54c2-3.26,4.18-6.43,6.27-9.59,1.72-2.62,3.37-5.21,5.06-7.93,6.29-9.9,11.75-18.92,15-25.27a122,122,0,0,0,9.17-24.33c.31-1,.58-2,.85-3a1.69,1.69,0,0,0,.14-.62c.23-1,.44-1.94.66-2.93.11-.4.17-.86.27-1.34,2.41-12.35,2.67-24.25-.1-33.59a7.69,7.69,0,0,0-.39-1c17.35,2.9,88,20.45,88,114,0,0-1.24.41-3.6,1.16H135.55Z"/><path class="cls-5" d="M182.9,309.65c.34,9.25-13.76,51.36-24.09,78.31H133.13C122.79,361.08,108.7,318.9,109,309.51c.28-8.13,1.47-14.9,4-21.37a61.2,61.2,0,0,1,7.4-13.19,2.9,2.9,0,0,0,.34-.4h.75l24.45,21,24.43-21h.77a5.23,5.23,0,0,0,.51.71,72.2,72.2,0,0,1,5.61,9.24c.51,1.15,1,2.32,1.51,3.47,2.64,6.54,3.83,13.35,4.12,21.68"/><path class="cls-9" d="M136.74,388H123.17c-.61-.86-1.14-1.68-1.67-2.43-27.79-40.33-32.11-70.06-32.11-70.06l11.48-7-7.08-6.35s2.75-4.25,7.7-10.57a48.33,48.33,0,0,1,5.64-5.68c3.93-3.36,8.16-6.3,9.11-6.54-.33.53-3.27,5.62-2.51,30,.1,1.63.15,3.2.34,4.88,0,.43.09.77.14,1.1.08.82.19,1.56.32,2.38a1.66,1.66,0,0,0,.06.53c.09.79.23,1.61.37,2.43C117,332.85,121.5,347.27,126.4,361c.8,2.21,1.61,4.3,2.41,6.44.95,2.58,2,5.27,2.95,7.81.62,1.46,1.15,2.89,1.7,4.28s1.24,3.13,1.87,4.76l1.41,3.65"/><path class="cls-9" d="M202.6,315.47s-4.27,29.73-32.12,70.06c-.51.75-1.1,1.57-1.73,2.43H155.33c3.56-8.87,7.79-19.47,11.55-30.36.14-.35.22-.69.32-1,0-.07.05-.07.05-.12,4.55-13.17,8.45-26.58,10.12-38a5.36,5.36,0,0,0,.13-.77c.15-.87.23-1.68.34-2.53,0-.3,0-.65.08-.95.18-1.67.24-3.3.34-4.93.37-13.3-.28-20.84-1-25.09-.14-.74-.28-1.39-.41-2,0-.12-.06-.17-.06-.28a10,10,0,0,0-1-2.68c.91.24,5.06,3.18,9,6.54h0a49.93,49.93,0,0,1,5.69,5.69c4.88,6.31,7.64,10.56,7.64,10.56l-7.07,6.35Z"/><path class="cls-10" d="M120.88,54.32C116.55,52.12,98,45.45,98,45.45s6.31,3.55,7.09,6.72S63.48,70.44,57.74,111.06s9.39,56.73,9.39,56.73-2.91-28.4-2.91-28.32S52.87,152.24,54.09,162.2s3.87,8.87,12,20c7.42,10.13-.22-5.32-.22-5.32s6,18.37,8.66,10.53c4.66-13.57,2.73-19.19,4.29-26.77s2.67-27.93,2.67-27.93-7,16.48,1.32,32.59a40.47,40.47,0,0,0,5.75,8.35s-5-10.22-4.1-21.05c.61-6.78,5-7.86,14.77-32.78,4.6-11.82.54-34.49-.23-29s-1.27,19.32,3.66,26.21a39.52,39.52,0,0,0,18.22,13.8s-11.77-8.25-12-23A34.23,34.23,0,0,1,112,93.55s-2.93,16.6,24.33,26.4a23.37,23.37,0,0,0,13.94.88s-11.34-6.07-11.47-16.66c0,0,17.24,20.24,48.49,26.82,12.07,2.53,20.27,1.77,20.27,1.77s1.25-2.41.92,8.8-2.44,16-5.3,19.92a40.26,40.26,0,0,1-4.73,4.48s9-3.12,14.64-13.72c3.83-7.26,2.55-17,2.55-17a188.11,188.11,0,0,1,.12,28.25c-1.59,23.63-10.48,34-10.48,34s8.72-4.5,14.27-18.34c.17-.43-.59,8.37.2,2.38,0,0,7.94,1,13.59-13.57,0,0,3.76,15.49.89-2.93-3.64-23.4,2.35-41.68-2.44-60s-6.08-20.06-14-30S202.31,57.19,181,50.71s-25.75-4.23-33.86-4.09c-12.94.22-21.18,5.86-21.18,5.86a17.3,17.3,0,0,1,.73-9.7,49.31,49.31,0,0,1,3.52-8.23s-5.14,7.34-6.25,9.18c-4.56,7.57-3.1,10.59-3.1,10.59"/><g class="cls-11"><g class="cls-12"><path class="cls-13" d="M169,278.7v.06a25.39,25.39,0,0,1-21.82,12.17h-.11c-12.53-.06-19.83-9.41-21.68-12.11.42-2.71.81-5.61,1.09-8.61.18-1.81.34-3.63.51-5.46a85.54,85.54,0,0,0,19.85,2.65h.23a79.87,79.87,0,0,0,20.33-2.89c.16,1.81.33,3.63.5,5.36.31,3.13.65,6.07,1.1,8.83"/></g></g><path class="cls-7" d="M175.85,278.55c-1.18-3.52-4-6.8-5.08-9.6-1.72-4.63-3.31-8.71-3.31-8.71-.39,4.41-4.09,16.88-11.77,24.09s-11.66,10.56-8.75,11.28,15.25,20.52,19.18,25.83,3.3,10.25,4.33,3.06,4.5-14.47,4.84-23.84,3.72-12.7.56-22.11"/><path class="cls-7" d="M136.3,284.33c-7.68-7.21-11.39-19.68-11.77-24.11,0,0-1.58,4.1-3.32,8.73-1,2.8-3.91,6.08-5.08,9.6-3.16,9.41.21,12.69.56,22.11s3.81,16.67,4.84,23.84.37,2.26,4.31-3.06,16.28-25.11,19.19-25.83-1.05-4.08-8.73-11.28"/><path class="cls-10" d="M181.64,244.6a69.08,69.08,0,0,0-6-5.35c-18.76-14.62-41.18-14.62-59.94,0-.8.62-3.56,2.61-6.36,4.89-14.26-4.65-29.59-20.9-37.58-33.26l-1.08,2c1.79,30.28,28.5,52.78,46.38,58.78a44.09,44.09,0,0,0,58.07,0c17.41-5.84,40.67-21.65,46.43-58.11l-2.17-2.17C211.2,223.58,196.3,240,181.64,244.6Zm-57.39,1.29c19.28-8.14,26-7.89,45.95.5,0,0-14.23,8.06-24.16,8.06C135.91,254.45,131.33,251.34,124.25,245.89Z"/></g></svg>