<svg id="Capa_1" data-name="Capa 1" xmlns="http://www.w3.org/2000/svg" xmlns:xlink="http://www.w3.org/1999/xlink" viewBox="0 0 294.64 386.91"><defs><style>.cls-1{fill:none;}.cls-2{clip-path:url(#clip-path);}.cls-3{fill:#f5d7b3;}.cls-4{fill:#ec6d4b;}.cls-5{fill:#67b5be;}.cls-6{fill:#f8f4eb;}.cls-7{opacity:0.28;}.cls-8{clip-path:url(#clip-path-2);}.cls-9{fill:#b49179;opacity:0.26;}.cls-10{fill:#ecf6f8;}.cls-11{fill:#1b5074;}</style><clipPath id="clip-path"><rect class="cls-1" width="294.64" height="386.91"/></clipPath><clipPath id="clip-path-2"><rect class="cls-1" x="112.64" y="258.99" width="63.91" height="28.46"/></clipPath></defs><g class="cls-2"><path class="cls-3" d="M148.31,234.73V387.85H24.52L21.47,387c0-82.13,75.78-88.26,75.78-88.26,7.58,0,12.43-6.53,15.64-16.47a37.2,37.2,0,0,0,1.32-4.79,88.79,88.79,0,0,0,1.73-8.87c.26-1.87.52-3.72.79-5.65a256,256,0,0,0,1.46-29.31s16.67,1.1,30.12,1.1"/><path class="cls-3" d="M273.17,392.74s-1.09.32-2.9.93H147.41V229h.26c13.31,0,29.85-1.18,29.85-1.18A286.08,286.08,0,0,0,179,259.07c.24,2,.51,4,.74,6,.53,3.44,1,6.7,1.75,9.78v.05c.23,1.4.59,2.65.92,3.91,3.18,11.36,8.15,19,15.88,19,0,0,74.88,6.6,74.88,94.93"/><path class="cls-4" d="M80.36,214.34S93,174.17,104.43,175.93s12.64,51.48,5.82,59.28Z"/><rect class="cls-3" x="123.15" y="341.54" width="21.46" height="49.11" rx="6.79"/><rect class="cls-5" x="106.38" y="342.79" width="17.09" height="13.4"/><rect class="cls-5" x="71.8" y="342.79" width="17.09" height="13.4"/><rect class="cls-5" x="71.31" y="373.68" width="17.09" height="15.37"/><rect class="cls-5" x="88.86" y="356.19" width="17.09" height="16.61"/><ellipse class="cls-6" cx="98.89" cy="366.4" rx="4.27" ry="4.15"/><ellipse class="cls-6" cx="114.44" cy="366.4" rx="4.27" ry="4.15"/><g class="cls-7"><g class="cls-8"><path class="cls-9" d="M176.55,274.27v.07c-2.84,3.41-12.61,13.12-31.94,13.12h-.16c-18.36-.07-29.06-10.15-31.8-13.06.64-2.91,1.2-6,1.61-9.27q.34-2.92.73-5.89a170.5,170.5,0,0,0,29.12,2.85h.34a158.22,158.22,0,0,0,29.77-3.1c.22,1.92.48,3.87.72,5.76.49,3.38,1,6.55,1.61,9.52"/></g></g><path class="cls-3" d="M144.5,60.36c-79.95,0-80.41,65.92-76.85,109.06-5.47-10.22-21.7-7.07-20.37,9C48.56,194,71.48,202,71.17,200.19c6.55,35.52,44.15,56,73.33,56l.59,0V60.37h-.59"/><path d="M166.23,54.83c-3.53-1.72-3.89-5.82-4.18-8s2.45-15.61,2.45-15.61S161.15,41.8,157.57,44a6.44,6.44,0,0,0-3.28,5.37c0-1.29,2.28-5.4,1.46-8.2-.95-3.23-1.77-7.41,1.19-10.46s13.76-5,13.76-5-12.1-.11-16,.67c-5.26,1.05-13.33,3.13-18.11,8.68s.71,13.67-.19,13.13-7.17-6.94-7.77-11.66,0-5.82,0-5.82-13.37,9-9.56,23c1.29,4.67,9.56,8.59,9.56,8.59"/><path class="cls-3" d="M144.89,60.36c79.94,0,80.4,65.92,76.84,109.06,5.48-10.22,21.7-7.07,20.38,9-1.29,15.51-24.2,23.55-23.89,21.73-6.56,35.52-44.16,56-73.33,56l-.6,0V60.37h.6"/><path d="M144.36,49.4c-18.76-1.83-46.22-1.25-66.82,13.07-33.61,23.39-26.26,95.16-26.26,95.16s.78,19,3.92,22c4.3,4.06,11.89.51,13.06,5.47s6,7.14,6,7.14-8-47.7.23-62.54c5.11-9.19,14.53-33.37,29.91-43,10.09-6.33,22.9,13.54,40,13.74a21,21,0,0,0,2.37-.16V49.86Z"/><path d="M145.81,49.4c18.77-1.83,46.23-1.25,66.83,13.07,33.6,23.39,26.26,95.16,26.26,95.16s-.78,19-3.92,22c-4.3,4.06-11.89.51-13.06,5.47s-6,7.14-6,7.14,8-47.7-.22-62.54c-5.11-9.19-14.53-33.37-29.91-43-10.09-6.33-22.9,13.54-40,13.74a21.3,21.3,0,0,1-2.38-.16V49.86Z"/><ellipse class="cls-3" cx="144.85" cy="209.79" rx="72.13" ry="69.59"/><path class="cls-10" d="M273.17,392.72a23.62,23.62,0,0,0-2.91.95H24.6c-2-.69-3.13-.95-3.13-.95,0-69.59,44.38-89.64,64.93-95.24,11.85,4.42,31,11.61,37.91,13.94,5.31,1.74,13,6,23,5.89,9.25-.13,20.47-4.35,33.87-7.49A217.27,217.27,0,0,0,213.58,299c22,7.52,59.59,29.63,59.59,93.69"/><path class="cls-11" d="M245.76,393.67H48.94c.58-7.2,1.18-20.26.91-37.85v-3.31c-.09-1.22-.09-2.49-.24-3.87-.09-.87-.2-1.86-.29-2.81a244.5,244.5,0,0,0-4.19-24.17,79.47,79.47,0,0,1,18.07-15,7.73,7.73,0,0,1,1.64-1,88.29,88.29,0,0,1,21.47-9.13c1.09-.33,2.15-.59,3.1-.79a63.72,63.72,0,0,1,7.2-1.27,10.89,10.89,0,0,0,6.19-1.93l.07-.07a19.22,19.22,0,0,0,1.85-1.6,3.65,3.65,0,0,1,1.09,1.67c2.32,4.58,25.53,50.48,41.51,62.25,16-11.77,39.19-57.67,41.52-62.25a3.38,3.38,0,0,1,1.13-1.67,16.65,16.65,0,0,0,1.8,1.6.07.07,0,0,1,.08.07,11,11,0,0,0,6.18,1.93,53,53,0,0,1,6.81,1.14c.93.26,2,.52,3.11.86a87.61,87.61,0,0,1,21.73,9.06,13.79,13.79,0,0,1,1.61,1,78.48,78.48,0,0,1,18.23,15.05,211.78,211.78,0,0,0-4.19,24.68c-.18,1-.27,1.92-.36,2.82s-.07,1.94-.17,2.76v3.3c-.35,17.86.35,31.18,1,38.45"/></g></svg>