<svg id="Capa_1" data-name="Capa 1" xmlns="http://www.w3.org/2000/svg" xmlns:xlink="http://www.w3.org/1999/xlink" viewBox="0 0 294.64 386.91"><defs><style>.cls-1{fill:none;}.cls-2{clip-path:url(#clip-path);}.cls-3{fill:#6c625b;}.cls-4{opacity:0.11;}.cls-5{clip-path:url(#clip-path-2);}.cls-6{fill:#c89f81;}.cls-7{fill:#e6bc9c;}.cls-8{fill:#635c55;}.cls-9{fill:#c2a08c;}.cls-10{fill:#a6613d;opacity:0.2;}.cls-11{fill:#c9c1bc;}</style><clipPath id="clip-path"><rect class="cls-1" width="294.64" height="386.91"/></clipPath><clipPath id="clip-path-2"><rect class="cls-1" x="127.87" y="345.27" width="48.9" height="27.53"/></clipPath></defs><g class="cls-2"><polygon class="cls-3" points="263.19 278.98 253.48 286.13 263.2 293.28 253.46 300.39 263.11 307.64 253.23 314.58 262.68 322.09 252.56 328.65 261.64 336.6 251.14 342.54 259.6 351.16 248.6 356.1 256.02 365.61 244.46 369.01 250.27 379.58 238.29 380.81 241.83 392.34 229.86 390.94 230.76 402.96 219.37 399.01 217.85 410.97 207.35 405.02 203.93 416.57 194.37 409.21 189.57 420.27 180.83 411.95 175.05 422.54 166.99 413.55 160.5 423.72 153 414.27 145.96 424.07 138.94 414.26 131.45 423.71 124.99 413.54 116.92 422.5 111.19 411.9 102.43 420.19 97.7 409.11 88.11 416.42 84.78 404.84 74.26 410.72 72.83 398.77 61.42 402.63 62.41 390.63 50.45 391.98 54.03 380.48 42.05 379.26 47.85 368.7 36.28 365.36 43.66 355.82 32.63 350.97 41.03 342.32 30.5 336.47 39.53 328.49 29.38 322 38.78 314.46 28.88 307.6 38.5 300.33 28.73 293.27 38.45 286.12 28.73 278.98 38.57 272.53 29.24 265.36 39.54 259.67 30.78 251.81 41.48 246.93 33.37 238.41 44.43 234.39 37.02 225.25 48.37 222.15 41.75 212.42 53.32 210.29 47.57 200.03 59.28 198.93 54.49 188.19 66.25 188.19 62.51 177.03 74.22 178.21 71.64 166.73 83.16 169.14 81.87 157.44 93.03 161.16 93.14 149.4 103.75 154.47 105.37 142.81 115.22 149.24 118.41 137.92 127.27 145.66 132.04 134.91 139.68 143.84 145.96 133.9 152.24 143.84 159.88 134.91 164.66 145.66 173.51 137.92 176.7 149.24 186.55 142.82 188.17 154.47 198.79 149.4 198.9 161.17 210.06 157.45 208.77 169.15 220.28 166.73 217.71 178.21 229.41 177.04 225.67 188.19 237.44 188.19 232.64 198.93 244.35 200.03 238.6 210.29 250.17 212.42 243.55 222.15 254.9 225.25 247.49 234.39 258.55 238.41 250.43 246.93 261.14 251.81 252.38 259.67 262.68 265.36 253.35 272.53 263.19 278.98"/><g class="cls-4"><g class="cls-5"><path class="cls-6" d="M176.77,360.05v.06A28.84,28.84,0,0,1,152.3,372.8h-.13c-14-.06-22.23-9.81-24.3-12.63.46-2.82.9-5.84,1.22-9,.2-1.88.38-3.78.57-5.69a102.24,102.24,0,0,0,22.26,2.76h.25a96.37,96.37,0,0,0,22.8-3c.19,1.88.38,3.78.57,5.57.35,3.27.72,6.33,1.23,9.21"/></g></g><path class="cls-7" d="M145.92,201c-85-1.46-86.69,74.82-83.72,124.83-5.63-11.91-22.93-8.56-21.83,10.1,1.08,18,25.28,27.7,25,25.61,6.33,41.22,45.92,65.64,76.91,66.17.22,0,.45,0,.65,0L146.56,201h-.64"/><path class="cls-7" d="M143.4,201.19c88.48,0,89,76.3,85.06,126.25,6.07-11.82,24-8.16,22.55,10.47-1.41,18-26.78,27.27-26.43,25.18-7.25,41.1-48.88,64.84-81.18,64.84-.21,0-.44,0-.67,0V201.19h.67"/><path class="cls-8" d="M73.79,332.51c10.1,7.22,36.56,12.54,34.68,23.53-2.76,16.09-39.67,13.41-61.07.44-9.1-5.52-9.52-12.65-9.92-16-.75-6.29.81-12.13,2.93-17.52,1.32-3.36,3.93-8.67,9.11-8.82C54.26,314,53.83,318.24,73.79,332.51Z"/><path class="cls-7" d="M107.24,209.28A116.55,116.55,0,0,1,91,223.19c-5.2-1.57-8.71-3.77-11.44-7.61-5.18-7.49-3.59-22.14.39-25.17,4.28-3.25,18.82-1.5,23.92,5.9C106.63,200.26,107.3,203.84,107.24,209.28Z"/><path class="cls-7" d="M200.69,224.11A120,120,0,0,1,187.42,207c1.46-5.5,3.51-9.22,7.14-12.13,7.06-5.5,21-3.91,23.85.28,3.1,4.5,1.53,19.85-5.46,25.28C209.23,223.41,205.84,224.14,200.69,224.11Z"/><path class="cls-7" d="M90.9,223.94c-4.21-5.64-3.85-13.72,1-17.78s12.4-2.55,16.61,3.09Z"/><path class="cls-7" d="M204,223.94c4.22-5.64,3.86-13.72-1-17.78s-12.4-2.55-16.62,3.09Z"/><path class="cls-9" d="M147.46,279c-15.73,0-32.5.32-26.75,15.79,5.84,15.7,21.09,30.13,28.48,30.13,7.64,0,22.13-14.16,28.48-30.13C183.77,279.44,163.2,279,147.46,279Z"/><path class="cls-8" d="M148.48,289.09c-6.35,0-13.12.13-10.8,6.37s8.51,12.16,11.5,12.16,8.93-5.71,11.49-12.16C163.13,289.28,154.83,289.09,148.48,289.09Z"/><ellipse class="cls-7" cx="147.57" cy="234.16" rx="50.77" ry="38.3"/><path class="cls-10" d="M93.86,220.48c-2.66-3.55-2.43-8.64.64-11.19s7.8-1.61,10.46,1.94Z"/><path class="cls-10" d="M200.41,220.48c2.65-3.55,2.42-8.64-.64-11.19s-7.81-1.61-10.46,1.94Z"/><path class="cls-11" d="M36.83,293.41c5.59,4,16.1,5,21.8,3.5C53.27,288.83,42.63,291,36.83,293.41Z"/><path class="cls-11" d="M39.12,281c5.06,4.69,15.35,7.2,21.19,6.45C56,278.69,45.17,279.42,39.12,281Z"/><path class="cls-11" d="M42.24,267.86c5,4.68,15.34,7.2,21.18,6.44C59.1,265.56,48.28,266.29,42.24,267.86Z"/><path class="cls-11" d="M253.88,295.05c-5.27,4-15.18,5-20.56,3.5C238.38,290.47,248.42,292.68,253.88,295.05Z"/><path class="cls-11" d="M251.72,282.63c-4.77,4.69-14.48,7.2-20,6.45C235.81,280.33,246,281.07,251.72,282.63Z"/><path class="cls-11" d="M248.78,269.5c-4.77,4.69-14.47,7.2-20,6.45C232.88,267.2,243.09,267.93,248.78,269.5Z"/><ellipse class="cls-10" cx="106.14" cy="275.86" rx="8.77" ry="6.01"/><ellipse class="cls-10" cx="192.21" cy="275.86" rx="8.74" ry="6.01"/><path class="cls-8" d="M125.4,257.4c-2.57,0-4.65,3.15-4.65,7.27H130C130,260.55,128,257.4,125.4,257.4Z"/><path class="cls-8" d="M172.93,257.4c-2.57,0-4.65,3.15-4.65,7.27h9.3C177.58,260.55,175.5,257.4,172.93,257.4Z"/><path class="cls-10" d="M176.53,385.2c0,27-15.9,48.94-35.51,48.94S105.5,412.23,105.5,385.2s15.9-48.93,35.52-48.93S176.53,358.18,176.53,385.2Z"/><path class="cls-8" d="M217.5,333.61c-9.61,6.87-34.82,11.95-33,22.41,2.62,15.32,37.77,12.77,58.16.42,8.67-5.26,9.06-12.05,9.45-15.26.71-6-.77-11.56-2.8-16.69-1.26-3.21-3.74-8.26-8.68-8.4C236.1,316,236.51,320,217.5,333.61Z"/></g></svg>