<svg id="Capa_1" data-name="Capa 1" xmlns="http://www.w3.org/2000/svg" xmlns:xlink="http://www.w3.org/1999/xlink" viewBox="0 0 294.64 386.91"><defs><style>.cls-1{fill:none;}.cls-2{clip-path:url(#clip-path);}.cls-3{fill:#cca482;}.cls-4{opacity:0.9;}.cls-5{clip-path:url(#clip-path-2);}.cls-6{fill:#c89f81;}.cls-7{fill:#b54e58;}.cls-8{fill:#fafafa;}</style><clipPath id="clip-path"><rect class="cls-1" width="294.64" height="386.91"/></clipPath><clipPath id="clip-path-2"><rect class="cls-1" x="116.7" y="265.9" width="59.49" height="28.09"/></clipPath></defs><g class="cls-2"><path class="cls-3" d="M198,309.09c-7.8,0-12.83-7.07-16-17.53a36.38,36.38,0,0,1-.91-3.6v0c-.72-2.84-1.24-5.84-1.78-9-.25-1.79-.51-3.64-.75-5.5a240.76,240.76,0,0,1-1.49-28.8s-16.7,1.09-30.14,1.09h-.26c-13.42,0-30-1.09-30-1.09a253.72,253.72,0,0,1-1.45,29c-.27,1.91-.54,3.75-.8,5.6a87,87,0,0,1-1.72,8.78,36.74,36.74,0,0,1-1.32,4.76c-3.18,9.84-8,16.32-15.6,16.32,0,0-75.6,6.06-75.6,87.44l3,.86H270.68c1.84-.56,2.93-.86,2.93-.86C273.61,315.15,198,309.09,198,309.09Z"/><g class="cls-4"><g class="cls-5"><path class="cls-6" d="M176.19,281V281c-2.64,3.37-11.73,12.95-29.73,12.95h-.14a39.93,39.93,0,0,1-29.6-12.89c.6-2.88,1.12-6,1.5-9.15.2-1.93.44-3.86.68-5.82A149.88,149.88,0,0,0,146,269h.32A139.67,139.67,0,0,0,174,265.9c.21,1.88.45,3.81.67,5.68.46,3.34.91,6.46,1.5,9.39"/></g></g><path class="cls-3" d="M145.3,62.62c-39,0-54.71,14.45-65.1,35.3C68.81,120.77,64.78,151.33,66.68,179c-5.59-12.53-22.19-8.66-20.83,11.09,1.31,19,24.76,28.86,24.44,26.64,6.7,43.53,45.16,68.66,75,68.66l.61,0V62.64l-.61,0"/><path class="cls-3" d="M145.71,62.62c39,0,54.71,14.45,65.09,35.3,11.39,22.86,15.41,53.41,13.51,81.06,5.61-12.53,22.2-8.66,20.85,11.09-1.32,19-24.76,28.86-24.44,26.64-6.71,43.53-45.18,68.66-75,68.66-.21,0-.43,0-.62,0V62.64l.62,0"/><path d="M237.77,112.57c-3-4.55-7.27-7.78-11.25-11.4-2.47-2.25-5-4.74-6.25-7.92-1.4-3.53,1.94-5.76,4.38-7.3,7.12-4.47,8.5-9.06,2.81-16.14-2.89-3.6-8.39-3.36-12.42-3.25-3.65.11-7.36.14-10.14-2.66-2-2,3.2-4.32,4.27-5,5.5-3.38,9.67-9.78,5.42-16.12-3.09-4.61-9.89.22-13,2.19-6.56,4.18-15.79,12.1-24,8.11-3.33-1.63-1.19-2,.57-4.36a13.71,13.71,0,0,0,2.73-7.66c.2-4.8-5-6.89-8.8-5.82-5.9,1.68-10.92,7.42-16.31,10.39-3.5,1.93-7.31,3.66-11.32,4-6,.45-6.52-6.29-6.43-10.81a1.19,1.19,0,0,0-.87-1.16c-5.7-.81-12.59,4.61-17.28,7.21C115.52,47.28,100.4,57,101,46.06a1.18,1.18,0,0,0-.86-1.16c-13.72-3.66-16.31,7.72-18.7,18.84a25,25,0,0,1-2.68,7.67c-2.31,3.88-7.85,6.1-11.39,8.64-5.89,4.22-8.46,10.46-5.56,17.47,2.57,6.2,4.62,10.84,3.14,17.78-1.24,5.74-4.55,11.33-7,16.62a3.47,3.47,0,0,0-.26,3.27c1.68,3.53,3.9,6.62,5.36,10.4,1.26,3.27-1.26,6.37-1.92,9.52-.7,3.35,0,5.83,1.3,8.84.78,1.79,2.18,7.73,4,8.28a3.48,3.48,0,0,1,.58.25c0,.27,0,.54,0,.81-.23.6-.43,1.15-.52,1.49a19.74,19.74,0,0,0-1,5.15,1.21,1.21,0,0,0,1.18,1.21h5.53a.54.54,0,0,0,.14,0h6.17s-8.3-72.09,33.93-90.9c.68-.29,1.38-.55,2.07-.82-.44,15.15.07.77.1,0h0c.54,1.43,23.77,61.71,99.27,39.28,10.38,14.44,5.88,42.57,4.85,48.21l0,0a1.1,1.1,0,0,0-.18,1c-.11,1.45.33,3.85,4.88,2.42,1.59-.29,2.86-1.74,4-3.52a14.43,14.43,0,0,0,5.9-5.89,1.31,1.31,0,0,0,.11-.85l1.62-12.11a22.43,22.43,0,0,0,.83-6.2h0a49.15,49.15,0,0,0-1.23-9.62c-1.48-7.24,3.79-12.68,6.33-18.82C242.61,119.43,239.76,115.57,237.77,112.57Z"/><path class="cls-7" d="M203.22,305.31c.12.28-4.07-.94-4.94-2a75.42,75.42,0,0,0-9.23-8.64,8.57,8.57,0,0,1-.87-.64l-1.37,5.35-40.2,22.86L107,300.33,105,294a2.76,2.76,0,0,1-.55.36c-5.33,4.23-14.5,11.24-14.42,11-14.89,2.38-75.51,16.84-75.51,93.85,0,0,1.1.34,3.13.93h258c2-.59,3.11-.93,3.11-.93C278.75,322.15,218.12,307.69,203.22,305.31Z"/><path class="cls-8" d="M176.44,236.76a2.74,2.74,0,0,0-2-.85h-54a2.72,2.72,0,0,0-2,.85,1.88,1.88,0,0,0-.42,1.87c3.69,11,15.81,18.64,29.45,18.64s25.76-7.67,29.45-18.64A1.86,1.86,0,0,0,176.44,236.76Z"/></g></svg>