<svg id="Capa_1" data-name="Capa 1" xmlns="http://www.w3.org/2000/svg" xmlns:xlink="http://www.w3.org/1999/xlink" viewBox="0 0 294.64 386.91"><defs><style>.cls-1{fill:none;}.cls-2{clip-path:url(#clip-path);}.cls-3{fill:#f5d7b3;}.cls-4{fill:#0e080d;}.cls-5{fill:#373338;}.cls-6{fill:#4c3312;}.cls-7{opacity:0.14;}.cls-8{clip-path:url(#clip-path-2);}.cls-9{fill:#c89f81;}</style><clipPath id="clip-path"><rect class="cls-1" width="294.64" height="386.91"/></clipPath><clipPath id="clip-path-2"><rect class="cls-1" x="114.19" y="279.12" width="70.79" height="26.25"/></clipPath></defs><g class="cls-2"><path class="cls-3" d="M147.81,59.14c-42.91,0-60.18,14.57-71.6,35.61-12.52,23.06-17,53.89-14.86,81.8-6.15-12.65-24.42-8.75-22.91,11.18,1.44,19.18,27.22,29.12,26.87,26.88,7.37,43.93,49.67,69.27,82.5,69.27l.66,0V59.16l-.66,0"/><path class="cls-3" d="M148.25,59.14c42.9,0,60.17,14.57,71.59,35.61,12.52,23.06,16.95,53.89,14.86,81.8,6.16-12.65,24.41-8.75,22.92,11.18-1.45,19.18-27.22,29.12-26.87,26.88-7.38,43.93-49.69,69.27-82.5,69.27l-.68,0V59.16l.68,0"/><path class="cls-3" d="M151.87,255.67V384.55H25.05l-3.12-.73c0-69.13,77.63-74.29,77.63-74.29,7.77,0,12.74-5.5,16-13.86a27.36,27.36,0,0,0,1.36-4,64.66,64.66,0,0,0,1.76-7.46c.28-1.58.54-3.14.82-4.76A178.53,178.53,0,0,0,121,254.74s17.08.93,30.86.93"/><path class="cls-3" d="M270.79,383.82s-1,.25-2.77.73H151V255.67h.25c12.67,0,28.43-.93,28.43-.93a183.68,183.68,0,0,0,1.41,24.47c.23,1.57.48,3.15.7,4.67.51,2.7,1,5.25,1.67,7.66v0a28.93,28.93,0,0,0,.87,3.06c3,8.89,7.77,14.89,15.13,14.89,0,0,71.32,5.16,71.32,74.29"/><path class="cls-4" d="M281.84,393.14a24.83,24.83,0,0,0-3,.88H23.17a30.93,30.93,0,0,0-3.09-.88,107.42,107.42,0,0,1,5.54-35.27l.1-.24c.5-1.38,1-2.74,1.59-4.05s1-2.5,1.59-3.76a76,76,0,0,1,3.78-6.92,43.49,43.49,0,0,1,3-4.45,63,63,0,0,1,7-8.66l1.86-1.92a80.88,80.88,0,0,1,14.69-11.4,77.77,77.77,0,0,1,9.65-5.11c.64-.3,1.18-.6,1.73-.88,2.41-1,4.63-1.89,6.78-2.58h.09a16.44,16.44,0,0,1,2.59-1l1.14-.36a87.16,87.16,0,0,1,11.65-2.92H93a41.49,41.49,0,0,1,4.28-.6h.18a4.23,4.23,0,0,1,.73-.12,12.31,12.31,0,0,0,6.46-1.81s0-.06.09-.06a10.06,10.06,0,0,1,3,.06c8.33,1.57,16.93,13.26,25.71,22.14,1.23,1.2,2.36,2.34,3.54,3.42,4.56,4,9.15,6.92,13.79,6.92h.18c16.19,0,31.85-34.61,46.58-32.48a11.4,11.4,0,0,0,6.29,1.81s78.06,6.25,78.06,90.2"/><path class="cls-5" d="M105.12,302c10.07,13,30,30.75,45.44,31.66H151c.07,0,.21.06.32,0,15.44-.91,35.37-18.7,45.46-31.66a47.78,47.78,0,0,0-7.27-4c-8.49,10.9-25.3,26-38.34,26.71-.1.06-.23,0-.27,0h-.38c-13-.74-29.78-15.75-38.27-26.65a46.89,46.89,0,0,0-7.14,3.94"/><path class="cls-3" d="M178.19,257.28c6.23-3.33,5.15-7.18-2.38-8.55a159.9,159.9,0,0,0-22.67-2.49,189.89,189.89,0,0,0-24.07,2.49c-8.31,1.37-8.73,5.84-.93,9.92l.91.48c7.79,4.08,19.49,6.7,26,5.81A83,83,0,0,0,178.19,257.28Z"/><path class="cls-6" d="M186.23,249.24a81.47,81.47,0,0,0-6.52-5.94c-20.52-16.23-45-16.23-65.56,0-.87.69-3.89,2.9-7,5.44C91.6,243.57,74.84,225.53,66.1,211.8L64.91,214c2,33.63,31.17,58.62,50.73,65.28a47.66,47.66,0,0,0,63.51,0c19-6.48,44.48-24.05,50.78-64.54l-2.38-2.41C218.55,225.91,202.26,244.11,186.23,249.24Zm-62.77,1.45c21.08-9.05,28.46-8.78,50.25.54,0,0-15.56,9-26.42,9C136.21,260.19,131.21,256.74,123.46,250.69Z"/><path class="cls-6" d="M238.76,175.51a19.33,19.33,0,0,0-5.32,7.44c-2.9,7.18-4,5.94-4,5.94S234,160.79,234,153s-25.94-65.58-40.41-70.23-27.52,11-43.07,11h-1.23c-15.26-.29-28.79-15.49-43.08-11C91.76,87.39,65.83,145.21,65.83,153s4.55,35.92,4.55,35.92-1.12,1.24-4-5.94A19.5,19.5,0,0,0,60,174.69C56.15,126,58.35,54.32,149.18,54.32h.48c91.32,0,93.08,72.52,89.1,121.19"/><g class="cls-7"><g class="cls-8"><path class="cls-9" d="M185,293.21v.06c-3.14,3.14-14,12.1-35.38,12.1h-.17c-20.34-.06-32.19-9.36-35.22-12a82.16,82.16,0,0,0,1.78-8.55c.25-1.8.53-3.61.81-5.44A225.74,225.74,0,0,0,149.05,282h.38a209.68,209.68,0,0,0,33-2.85c.24,1.76.53,3.57.8,5.31.54,3.12,1.07,6,1.78,8.78"/></g></g><path class="cls-6" d="M207.25,245c-1.48-7.25-7.29-5-18-10.15S160.55,227,149.84,227h-.12c-10.71,0-28.78,2.8-39.42,7.9s-16.5,2.9-18,10.15c-.77,3.81-7,11.74-5.42,15.18,4.21,9.25,25.67,29.69,35.79,36,7.61,4.77,13.63,4.94,27.11,4.47,13.48.47,19.52.3,27.11-4.47,10.12-6.32,22.61-18.2,27.94-26.84C215,252.79,208,248.82,207.25,245Zm-20.14,3.54c-1.34,2.48-9.73,10.71-19.71,17-2,1.2-3.28,1.86-9.74,1.86-2.16,0-4.55-.07-7.29-.16l-.62,0-.61,0c-2.74.09-5.14.16-7.3.16-6.45,0-7.78-.66-9.75-1.86-9.88-6.19-18.23-14.34-19.93-17.55a25.12,25.12,0,0,1,5.73-3.62c7.51-3.6,22.81-6.12,31.84-6.13h.68c9.12.12,20.76,7.7,28.09,11.19,2.8,1.35-2,5.06,6.76,3.56C185.2,253.21,187.17,248.39,187.11,248.55Z"/></g></svg>